<?xml version="1.0" encoding="utf-8"?>
<!-- Generator: Adobe Illustrator 24.0.1, SVG Export Plug-In . SVG Version: 6.00 Build 0)  -->
<svg version="1.1" id="Camada_1" xmlns="http://www.w3.org/2000/svg" xmlns:xlink="http://www.w3.org/1999/xlink" x="0px" y="0px"
	 viewBox="0 0 1000 1000" style="enable-background:new 0 0 1000 1000;" xml:space="preserve">
<style type="text/css">
	.st0{fill:#FFFFFF;}
	.st1{fill:#00FF00;}
	.st2{fill:#F2F2F2;stroke:#F2F2F2;stroke-miterlimit:10;}
	.st3{opacity:0.2;}
	.st4{fill:#3CD33C;}
</style>
<path class="st0" d="M557.06,66.49c-2.66,9.28-6.61,23.14-11.31,39.96C496.46,282.8,331.78,871.99,419.14,924.96
	c6.16,3.74,16.46,6.55,33.65-0.66c56.09-261.27,112.19-522.53,168.28-783.8c7.71-20.68,3.81-45.04-9.81-61.38
	C597.2,62.22,575.44,57.13,557.06,66.49z"/>
<path class="st1" d="M527.65,71.29c-2.66,9.28-6.61,23.14-11.31,39.96C467.05,287.6,302.37,876.79,389.73,929.76
	c6.16,3.74,16.46,6.55,33.65-0.66c56.09-261.27,112.19-522.53,168.28-783.8c7.71-20.68,3.81-45.04-9.81-61.38
	C567.79,67.02,546.04,61.93,527.65,71.29z"/>
<path class="st2" d="M644.79,159.88c35.05,22.69,84.17,54.77,142.85,94.05c120.96,80.95,170.33,117.37,191.87,188.1
	c6.75,22.16,8.97,41.8,9.8,54.72c-64.83,77.4-122.44,134.39-163.86,172.71C716.53,770.21,688.84,770.21,674.2,760.08
	c-23.19-16.04-25.1-65.4-23.81-99.18c74.69-64.98,149.39-129.96,224.08-194.94c-55.3-34.18-99.68-66.21-131.65-90.63
	c-58.69-44.83-75.27-63.82-86.83-90.63C635.55,237.31,640.2,187.31,644.79,159.88z"/>
<path class="st1" d="M641.68,206.84c35.05,21.61,84.17,52.18,142.85,89.6c120.96,77.12,170.33,111.82,191.87,179.19
	c6.75,21.11,8.97,39.82,9.8,52.13c-64.83,73.74-122.44,128.03-163.86,164.53c-108.93,95.99-136.62,95.99-151.26,86.34
	c-23.19-15.28-25.1-62.3-23.81-94.48c74.69-61.9,149.39-123.8,224.08-185.71c-55.3-32.57-99.68-63.07-131.65-86.34
	c-58.69-42.71-75.27-60.8-86.83-86.34C632.43,280.61,637.09,232.98,641.68,206.84z"/>
<path class="st2" d="M356.92,162.18c-35.05,22.69-84.17,54.77-142.85,94.05C93.11,337.18,43.73,373.6,22.19,444.32
	c-6.75,22.16-8.97,41.8-9.8,54.72c64.83,77.4,122.44,134.39,163.86,172.71c108.93,100.76,136.62,100.76,151.26,90.63
	c23.19-16.04,25.1-65.4,23.81-99.18c-74.69-64.98-149.39-129.96-224.08-194.94c55.3-34.18,99.68-66.21,131.65-90.63
	c58.69-44.83,75.27-63.82,86.83-90.63C366.16,239.61,361.51,189.61,356.92,162.18z"/>
<path class="st1" d="M360.03,209.14c-35.05,21.61-84.17,52.18-142.85,89.6C96.22,375.86,46.84,410.55,25.31,477.93
	c-6.75,21.11-8.97,39.82-9.8,52.13c64.83,73.74,122.44,128.03,163.86,164.53c108.93,95.99,136.62,95.99,151.26,86.34
	c23.19-15.28,25.1-62.3,23.81-94.48c-74.69-61.9-149.39-123.8-224.08-185.71c55.3-32.57,99.68-63.07,131.65-86.34
	c58.69-42.71,75.27-60.8,86.83-86.34C369.27,282.91,364.62,235.28,360.03,209.14z"/>
<g>
	<g>
		<path class="st0" d="M1344.28,112.42c1.93,0,1.93-3,0-3C1342.35,109.42,1342.35,112.42,1344.28,112.42L1344.28,112.42z"/>
	</g>
</g>
<g class="st3">
	<g>
		<path class="st4" d="M316.12,260.19c0.43,11.1,0.67,22.25-0.78,33.29c0.3-2.26,0.61-4.52,0.91-6.78
			c-0.91,6.55-2.45,12.96-5.01,19.07c0.86-2.03,1.71-4.06,2.57-6.09c-1.79,4.11-4.01,7.96-6.74,11.52c1.33-1.72,2.66-3.44,3.99-5.16
			c-3.66,4.61-8.02,8.51-12.66,12.1c1.72-1.33,3.44-2.66,5.16-3.99c-25.66,19.59-55.53,32.62-84.63,46.13
			c-14,6.5-27.97,13.12-41.4,20.74c-14.13,8.01-27.43,17.2-40.02,27.46c-12.47,10.16-23.16,21.88-32.58,34.92
			c-4.1,5.68-7.75,11.69-10.82,17.99c-4.05,8.3-7.69,17.05-9.61,26.12c-1.89,8.89-3.08,18.27-1.98,27.34
			c1.35,11.11,3.91,21.85,10.27,31.32c6.19,9.21,13.49,15.99,22.51,22.37c5.7,4.03,11.93,7.26,18.19,10.3
			c27.94,13.57,55.26,27.95,80.49,46.2c3.16,2.29,6.28,4.62,9.37,7.01c-1.72-1.33-3.44-2.66-5.16-3.99
			c19.74,15.31,37.81,32.71,53.12,52.49c-1.33-1.72-2.66-3.44-3.99-5.16c12.46,16.21,23.02,33.84,30.98,52.69
			c-0.86-2.03-1.71-4.06-2.57-6.09c6.36,15.24,10.96,31.15,13.4,47.49c0.88,5.88,6.83,12.38,11.72,15.24
			c5.47,3.2,13.52,4.55,19.65,2.57c6.17-2,12.12-5.82,15.24-11.72c0.86-2.03,1.71-4.06,2.57-6.09c1.21-4.52,1.21-9.04,0-13.56
			c-6.58-44.12-28.46-84.55-56.64-118.57c-13.44-16.21-28.82-30.75-45.36-43.75c-18.14-14.26-37.12-27.14-57.24-38.45
			c-10.36-5.82-20.93-11.27-31.64-16.41c-9.81-4.71-19.82-9.2-28.54-15.8c1.72,1.33,3.44,2.66,5.16,3.99
			c-3.59-2.79-6.86-5.9-9.67-9.48c1.33,1.72,2.66,3.44,3.99,5.16c-2.06-2.73-3.77-5.63-5.15-8.76c0.86,2.03,1.71,4.06,2.57,6.09
			c-1.54-3.69-2.56-7.5-3.14-11.45c0.3,2.26,0.61,4.52,0.91,6.78c-0.66-5.1-0.59-10.2,0.04-15.29c-0.3,2.26-0.61,4.52-0.91,6.78
			c0.96-7.1,2.95-13.97,5.69-20.58c-0.86,2.03-1.71,4.06-2.57,6.09c4.08-9.61,9.56-18.57,15.93-26.83
			c-1.33,1.72-2.66,3.44-3.99,5.16c8.69-11.13,18.98-20.84,30.13-29.46c-1.72,1.33-3.44,2.66-5.16,3.99
			c27.53-21.12,59.44-34.85,90.66-49.46c16.6-7.77,33.1-15.87,48.65-25.59c17.75-11.1,36.63-24.18,45.48-43.91
			c2.63-5.86,5.04-11.75,6.48-18.02c1.46-6.38,2.28-12.94,2.87-19.45c0.85-9.47,0.6-18.99,0.24-28.47
			c-0.26-6.69-2.67-13.23-7.47-18.03c-4.42-4.42-11.68-7.75-18.03-7.47c-6.59,0.3-13.43,2.46-18.03,7.47
			C319.11,247.04,315.85,253.38,316.12,260.19L316.12,260.19z"/>
	</g>
</g>
<g class="st3">
	<g>
		<path class="st4" d="M322.61,268.72c-29.12,29.32-57.93,59-87.43,87.94c-7.73,7.58-15.69,14.93-24.25,21.56
			c1.72-1.33,3.44-2.66,5.16-3.99c-19.03,14.61-40.97,24.35-62.42,34.79c-21.2,10.32-41.68,22.06-58.97,38.33
			c-3.69,3.47-7.16,7.16-10.34,11.1c-4.43,5.49-8.78,11.11-12.27,17.25c-3.39,5.96-6.12,12.35-8.4,18.81
			c-3.27,9.26-4.44,19.52-1.92,29.12c3.93,14.98,16.71,24.24,27.91,33.71c10.38,8.78,20.96,17.3,31.83,25.47
			c10.35,7.77,21.1,15.04,32.44,21.29c13.16,7.25,27.19,12.22,41.01,17.97c-2.03-0.86-4.06-1.71-6.09-2.57
			c4.83,2.05,9.47,4.43,13.64,7.64c-1.72-1.33-3.44-2.66-5.16-3.99c3.68,2.95,6.83,6.4,9.72,10.11c-1.33-1.72-2.66-3.44-3.99-5.16
			c5.05,6.6,9.47,13.7,14.07,20.61c4.99,7.51,9.98,15.01,14.98,22.52c9.83,14.77,19.7,29.52,29.47,44.32
			c4.96,7.51,9.75,15.17,13.32,23.46c-0.86-2.03-1.71-4.06-2.57-6.09c2.14,5.11,3.75,10.39,4.53,15.88
			c-0.3-2.26-0.61-4.52-0.91-6.78c0.23,1.84,0.37,3.68,0.42,5.53c0.21,8.16,3.64,15.07,10.05,20.02c5.93,4.58,14.8,7.37,22.23,4.56
			c15.42-5.84,29.9-14.67,40.4-27.62c6.62-8.18,12.17-16.36,15.74-26.34c0.31-0.86,0.53-1.7,0.7-2.59c0.49-2.66,1.02-5.56,0.99-8.28
			c-0.05-5.51-1.68-11.55-4.55-16.26c-2.95-4.84-6.55-8.17-10.87-11.56c-24.96-19.59-51.1-37.44-78.92-52.75
			c-14.74-8.11-29.86-15.52-45.28-22.24c-2.93-1.86-6.09-2.87-9.48-3.03c-3.39-0.76-6.78-0.61-10.17,0.46
			c-5.91,1.63-12.33,6.2-15.24,11.72c-3.13,5.92-4.69,13.09-2.57,19.65c1.9,5.89,5.78,12.65,11.72,15.24
			c32.11,13.99,62.87,31.04,91.72,50.9c8.18,5.63,16.19,11.49,24.05,17.55c-1.72-1.33-3.44-2.66-5.16-3.99
			c3.24,2.51,6.91,4.89,9.54,8.07c-1.33-1.72-2.66-3.44-3.99-5.16c0.43,0.59,0.77,1.15,1.1,1.8c-0.86-2.03-1.71-4.06-2.57-6.09
			c0.28,0.72,0.44,1.33,0.56,2.09c-0.3-2.26-0.61-4.52-0.91-6.78c0.05,0.5,0.04,1-0.01,1.5c0.3-2.26,0.61-4.52,0.91-6.78
			c-0.19,1.29-0.56,2.48-1.04,3.69c0.86-2.03,1.71-4.06,2.57-6.09c-2.09,4.74-4.87,9.16-8.02,13.27c1.33-1.72,2.66-3.44,3.99-5.16
			c-3.61,4.6-7.75,8.72-12.36,12.32c1.72-1.33,3.44-2.66,5.16-3.99c-4.65,3.55-9.68,6.51-15.05,8.81c2.03-0.86,4.06-1.71,6.09-2.57
			c-0.86,0.36-1.73,0.7-2.6,1.03c10.76,8.2,21.52,16.39,32.28,24.59c-0.8-31.55-21.31-57.1-38.02-82.22
			c-7.95-11.96-15.91-23.92-23.86-35.88c-8.45-12.71-16.39-26.51-26.93-37.63c-6.12-6.45-13.69-11.79-21.8-15.43
			c-8.29-3.72-16.86-6.66-25.23-10.17c2.03,0.86,4.06,1.71,6.09,2.57c-19.7-8.37-37.63-20.18-54.55-33.2
			c1.72,1.33,3.44,2.66,5.16,3.99c-7.23-5.59-14.29-11.38-21.28-17.27c-3.38-2.85-6.75-5.73-10.11-8.61
			c-3.32-2.85-6.79-5.6-9.51-9.06c1.33,1.72,2.66,3.44,3.99,5.16c-0.86-1.17-1.6-2.38-2.21-3.7c0.86,2.03,1.71,4.06,2.57,6.09
			c-0.49-1.21-0.83-2.41-1.06-3.7c0.3,2.26,0.61,4.52,0.91,6.78c-0.24-1.9-0.2-3.73,0.03-5.62c-0.3,2.26-0.61,4.52-0.91,6.78
			c0.69-4.48,2.24-8.79,3.99-12.96c-0.86,2.03-1.71,4.06-2.57,6.09c2.88-6.65,6.62-12.82,11.02-18.57
			c-1.33,1.72-2.66,3.44-3.99,5.16c6.26-8.05,13.67-15.07,21.71-21.32c-1.72,1.33-3.44,2.66-5.16,3.99
			c27.07-20.87,60.01-31.47,89.09-48.96c16.94-10.19,32.09-23.06,46.18-36.86c13.78-13.5,27.24-27.33,40.84-41.02
			c15.63-15.74,31.26-31.48,46.89-47.22c4.62-4.65,7.47-11.47,7.47-18.03c0-6.25-2.78-13.73-7.47-18.03
			c-4.86-4.46-11.24-7.77-18.03-7.47C333.89,261.56,327.47,263.83,322.61,268.72L322.61,268.72z"/>
	</g>
</g>
<g class="st3">
	<g>
		<path class="st4" d="M531.51,124.8c1.73,0.42,3.37,0.95,5.01,1.63c-2.03-0.86-4.06-1.71-6.09-2.57c2.24,1.03,4.27,2.25,6.24,3.73
			c-1.72-1.33-3.44-2.66-5.16-3.99c2.21,1.78,4.15,3.75,5.93,5.95c-1.33-1.72-2.66-3.44-3.99-5.16c2.2,2.88,3.99,5.96,5.47,9.27
			c-0.86-2.03-1.71-4.06-2.57-6.09c1.7,4.05,2.84,8.21,3.45,12.56c-0.3-2.26-0.61-4.52-0.91-6.78c0.63,5.44,0.42,10.87-0.26,16.3
			c0.3-2.26,0.61-4.52,0.91-6.78c-1.64,11.41-5.37,22.31-8.91,33.23c-3.66,11.27-7.12,22.6-10.41,33.98
			c-6.58,22.76-12.47,45.71-17.9,68.76c-10.76,45.68-19.72,91.77-28.65,137.84c-18.44,95.13-37.03,190.24-55.3,285.4
			c-10.45,54.41-20.1,109.35-21.88,164.85c-0.43,13.35,12.04,26.1,25.5,25.5c14.18-0.64,25.04-11.2,25.5-25.5
			c0.76-23.57,2.98-47.05,6.09-70.42c-0.3,2.26-0.61,4.52-0.91,6.78c6.61-49.01,16.77-97.48,26.18-146.01
			c9.42-48.63,18.85-97.25,28.27-145.88c18.47-95.28,34.71-191.51,61.46-284.92c3.8-13.27,7.84-26.47,12.13-39.59
			c4.58-14.03,8.61-28.03,9.47-42.89c1.69-29.12-15.17-61.18-45.11-68.39c-12.94-3.12-28.24,4.09-31.37,17.81
			C510.71,106.55,517.64,121.45,531.51,124.8L531.51,124.8z"/>
	</g>
</g>
<g class="st3">
	<g>
		<path class="st4" d="M447.8,646.54c3.86-4.36,7.54-9.12,10.18-14.34c2.66-5.26,4.93-10.85,6.64-16.51
			c2.4-7.95,3.77-16.2,5.29-24.36c3.33-17.84,6.35-35.74,9.45-53.62c6.14-35.45,12.58-70.92,22.25-105.61
			c5.44-19.5,11.95-38.68,19.82-57.34c-0.86,2.03-1.71,4.06-2.57,6.09c6.55-15.48,13.63-30.74,19.74-46.4
			c2.65-6.78,5.08-13.64,7.09-20.64c2.59-9.02,4.14-18.12,5.34-27.43c1.04-8.06,1.28-16.17,0.47-24.27c0.13-3.51-0.6-6.79-2.2-9.82
			c-1.03-3.16-2.79-5.9-5.27-8.21c-4.42-4.42-11.68-7.75-18.03-7.47c-6.59,0.3-13.43,2.46-18.03,7.47
			c-4.31,4.7-8.13,11.41-7.47,18.03c0.81,8.09,0.58,16.21-0.47,24.27c0.3-2.26,0.61-4.52,0.91-6.78
			c-2.45,18.06-8.83,35.25-15.86,51.96c0.86-2.03,1.71-4.06,2.57-6.09c-8.05,19.06-16.82,37.82-23.85,57.3
			c-6.47,17.92-11.78,36.25-16.33,54.76c-9.09,36.99-15.16,74.62-21.69,112.13c-1.83,10.5-3.69,20.99-5.67,31.46
			c-1.8,9.55-3.47,19.24-7.26,28.25c0.86-2.03,1.71-4.06,2.57-6.09c-1.55,3.59-3.43,6.99-5.8,10.11c1.33-1.72,2.66-3.44,3.99-5.16
			c-0.6,0.77-1.23,1.52-1.88,2.26c-4.51,5.08-7.47,11.08-7.47,18.03c0,6.25,2.78,13.73,7.47,18.03c4.86,4.46,11.24,7.77,18.03,7.47
			C436.29,653.71,443.32,651.59,447.8,646.54L447.8,646.54z"/>
	</g>
</g>
<g class="st3">
	<g>
		<path class="st4" d="M527.24,121.66c0.18,0.41,0.35,0.81,0.53,1.22c-0.86-2.03-1.71-4.06-2.57-6.09
			c2.95,7.07,4.84,14.52,5.88,22.1c-0.3-2.26-0.61-4.52-0.91-6.78c1.62,12.26,1.08,24.68-0.55,36.9c0.3-2.26,0.61-4.52,0.91-6.78
			c-1.97,14.51-5.47,28.74-8.59,43.02c-3.49,15.98-6.02,32.08-7.33,48.4c-0.61,7.58-1.12,15.17-2.12,22.72
			c0.3-2.26,0.61-4.52,0.91-6.78c-1.14,8.41-2.94,16.75-6.22,24.6c0.86-2.03,1.71-4.06,2.57-6.09c-0.62,1.46-1.29,2.9-2.01,4.32
			c-1.86,2.93-2.87,6.09-3.03,9.48c-0.76,3.39-0.61,6.78,0.46,10.17c0.79,3.32,2.31,6.21,4.56,8.67c1.8,2.78,4.18,4.97,7.15,6.57
			c2.03,0.86,4.06,1.71,6.09,2.57c4.52,1.21,9.04,1.21,13.56,0c2.03-0.86,4.06-1.71,6.09-2.57c3.83-2.27,6.88-5.32,9.15-9.15
			c4.96-9.8,8.43-20.1,10.2-30.93c1.79-11,2.72-22.05,3.61-33.14c0.41-5.18,0.88-10.36,1.56-15.51c-0.3,2.26-0.61,4.52-0.91,6.78
			c2.43-18.03,7.2-35.61,10.74-53.43c2.08-10.5,3.73-21.14,4.64-31.81c0.71-8.36,0.8-16.8-0.09-25.15
			c-0.71-6.7-1.59-13.47-3.24-20.02c-1.66-6.6-4.26-12.8-6.99-19.03c-1.6-2.97-3.79-5.36-6.57-7.15c-2.46-2.25-5.35-3.78-8.67-4.56
			c-3.39-1.06-6.78-1.21-10.17-0.46c-3.39,0.15-6.55,1.16-9.48,3.03c-1.72,1.33-3.44,2.66-5.16,3.99
			c-3.16,3.18-5.35,6.93-6.56,11.25c-0.3,2.26-0.61,4.52-0.91,6.78C523.77,113.39,524.93,117.68,527.24,121.66L527.24,121.66z"/>
	</g>
</g>
<g class="st3">
	<g>
		<path class="st4" d="M634.53,227.63c1.33,34.07,14.8,66.5,35.36,93.43c10.49,13.74,21.8,26.54,34.64,38.14
			c13.73,12.41,28.54,23.65,43.42,34.63c15.45,11.4,31.18,22.41,46.38,34.15c-1.72-1.33-3.44-2.66-5.16-3.99
			c22.71,17.59,43.52,37.12,61.13,59.89c-1.33-1.72-2.66-3.44-3.99-5.16c3.86,5.02,7.58,10.15,11.12,15.41
			c3.45,5.11,7.06,10.29,9.6,15.93c-0.86-2.03-1.71-4.06-2.57-6.09c0.86,2.04,1.51,4.1,1.89,6.28c-0.3-2.26-0.61-4.52-0.91-6.78
			c0.29,2.16,0.29,4.27,0.02,6.44c0.3-2.26,0.61-4.52,0.91-6.78c-0.42,2.69-1.2,5.24-2.24,7.75c0.86-2.03,1.71-4.06,2.57-6.09
			c-2.91,6.62-7.3,12.38-11.56,18.16c-4.1,5.55-8.22,11.09-12.44,16.55c1.33-1.72,2.66-3.44,3.99-5.16
			c-13.22,17.09-27.46,33.6-44.6,46.9c1.72-1.33,3.44-2.66,5.16-3.99c-9.36,7.19-19.45,13.2-30.31,17.84
			c2.03-0.86,4.06-1.71,6.09-2.57c-12.52,5.26-25.61,8.99-38.16,14.15c-7.47,3.07-14.97,6.16-21.89,10.35
			c-6.45,3.9-12.6,8.54-18.13,13.66c-5.42,5.02-10.25,11.03-14.1,17.31c-3.81,6.23-6.93,13.42-8.28,20.62
			c-1.74,9.23-1.72,16.89,0.18,26.12c1.36,6.6,4.19,13.31,7.88,18.93c10.04,15.26,27.31,27.46,46.4,25.77
			c6.89-0.61,13-2.43,18.03-7.47c4.42-4.42,7.75-11.68,7.47-18.03c-0.3-6.59-2.46-13.43-7.47-18.03
			c-4.73-4.34-11.37-8.06-18.03-7.47c-1.84,0.16-3.66,0.13-5.49-0.11c2.26,0.3,4.52,0.61,6.78,0.91c-1.97-0.31-3.86-0.85-5.71-1.6
			c2.03,0.86,4.06,1.71,6.09,2.57c-2.03-0.88-3.9-1.99-5.67-3.3c1.72,1.33,3.44,2.66,5.16,3.99c-2.28-1.77-4.28-3.8-6.05-6.08
			c1.33,1.72,2.66,3.44,3.99,5.16c-1.91-2.54-3.46-5.27-4.71-8.19c0.86,2.03,1.71,4.06,2.57,6.09c-1.2-2.97-2.03-6.02-2.48-9.19
			c0.3,2.26,0.61,4.52,0.91,6.78c-0.33-2.73-0.36-5.45-0.05-8.19c-0.3,2.26-0.61,4.52-0.91,6.78c0.47-3.48,1.45-6.83,2.77-10.08
			c-0.86,2.03-1.71,4.06-2.57,6.09c1.68-3.95,3.88-7.6,6.48-11.02c-1.33,1.72-2.66,3.44-3.99,5.16c3.46-4.41,7.49-8.27,11.91-11.71
			c-1.72,1.33-3.44,2.66-5.16,3.99c6.78-5.18,14.26-9.17,22.09-12.5c-2.03,0.86-4.06,1.71-6.09,2.57
			c13.06-5.48,26.72-9.37,39.79-14.83c7.87-3.29,15.58-6.7,22.89-11.12c7-4.23,13.48-9.18,19.91-14.24
			c21.36-16.83,38.17-38.68,54.34-60.31c8.72-11.66,18.95-23.82,21.7-38.55c1.43-7.68,1.57-13.92-0.04-21.6
			c-1.07-5.07-3.35-10-5.77-14.53c-3.21-5.99-7.19-11.67-11.08-17.23c-16.94-24.2-36.68-46.09-59.37-65.02
			c-25.47-21.25-53.17-39.56-79.41-59.8c1.72,1.33,3.44,2.66,5.16,3.99c-19.93-15.42-38.77-32.21-54.26-52.19
			c1.33,1.72,2.66,3.44,3.99,5.16c-8.98-11.67-16.75-24.25-22.55-37.8c0.86,2.03,1.71,4.06,2.57,6.09
			c-4.45-10.56-7.62-21.59-9.15-32.95c0.3,2.26,0.61,4.52,0.91,6.78c-0.46-3.57-0.76-7.14-0.9-10.73
			c-0.26-6.7-2.67-13.23-7.47-18.03c-4.42-4.42-11.68-7.75-18.03-7.47c-6.59,0.3-13.43,2.46-18.03,7.47
			C637.52,214.48,634.27,220.82,634.53,227.63L634.53,227.63z"/>
	</g>
</g>
<g class="st3">
	<g>
		<path class="st4" d="M691,673.48c-6.28,5.72-12.56,12.06-16.63,19.59c-5.66,10.46-7.75,22.24-4.64,33.86
			c1.48,5.54,4.08,10.26,7.53,14.72c3.24,4.2,7.05,8.03,11.96,10.3c4.57,2.12,7.47,3.09,12.21,3.72c4.89,0.66,9.04,0.46,14.01-0.68
			c5.27-1.2,10.35-3.87,14.99-6.61c25.12-14.86,46.52-36.78,60.77-62.25c4.39-7.85,8-16.15,11.21-24.55
			c2.84-7.45,4.73-15.23,7.74-22.61c-0.86,2.03-1.71,4.06-2.57,6.09c1.69-3.99,3.74-7.73,6.38-11.17c-1.33,1.72-2.66,3.44-3.99,5.16
			c4.01-5.07,8.9-9.28,13.98-13.24c-1.72,1.33-3.44,2.66-5.16,3.99c11.29-8.72,22.75-17.06,32.95-27.08
			c10.04-9.87,18.98-20.86,27.14-32.32c15.02-21.1,26.33-45.31,33.32-70.23c1.62-5.79,2.99-11.66,4.08-17.58
			c1.52-8.22,3.12-16.69,3.19-25.06c0.02-2.62-0.33-5.13-0.68-7.73c-0.34-2.55-0.57-5.15-1.35-7.62
			c-2.37-7.52-5.76-12.71-10.59-18.75c-3.94-4.93-8.8-9.07-13.65-13.08c-22.89-18.95-48.67-33.38-77.09-42.29
			c-13.39-4.19-27.12-6.45-40.94-8.66c-13.24-2.13-26.6-4.45-39.04-9.66c2.03,0.86,4.06,1.71,6.09,2.57
			c-5.6-2.4-10.88-5.37-15.71-9.09c1.72,1.33,3.44,2.66,5.16,3.99c-4.14-3.27-7.79-7.01-11.04-11.15c1.33,1.72,2.66,3.44,3.99,5.16
			c-5.56-7.23-9.73-15.34-13.27-23.71c0.86,2.03,1.71,4.06,2.57,6.09c-4.97-11.9-8.94-24.22-13.18-36.38
			c-4.79-13.74-9.58-27.47-14.38-41.21c-2.21-6.32-5.81-11.78-11.72-15.24c-5.47-3.2-13.52-4.55-19.65-2.57
			c-6.17,2-12.12,5.82-15.24,11.72c-3.08,5.84-4.82,13.19-2.57,19.65c6.3,18.06,12.61,36.13,18.91,54.19
			c5.71,16.36,11.27,33.41,20.8,48.01c5.11,7.82,11.1,15.41,18.43,21.27c4.47,3.57,8.97,7.06,13.98,9.83
			c4.89,2.7,10.12,4.84,15.3,6.88c13.98,5.51,29.02,7.54,43.77,9.91c17.72,2.85,34.91,6.98,51.5,13.93
			c-2.03-0.86-4.06-1.71-6.09-2.57c15.53,6.58,30.15,15.09,43.52,25.38c-1.72-1.33-3.44-2.66-5.16-3.99
			c6.58,5.11,13.49,10.5,18.66,17.09c-1.33-1.72-2.66-3.44-3.99-5.16c1.39,1.86,2.57,3.81,3.48,5.95c-0.86-2.03-1.71-4.06-2.57-6.09
			c0.72,1.89,1.17,3.78,1.45,5.78c-0.3-2.26-0.61-4.52-0.91-6.78c0.46,4.35,0.05,8.65-0.52,12.96c0.3-2.26,0.61-4.52,0.91-6.78
			c-2.4,17.67-7.17,34.92-14.05,51.37c0.86-2.03,1.71-4.06,2.57-6.09c-7.05,16.65-16.2,32.34-27.25,46.65
			c1.33-1.72,2.66-3.44,3.99-5.16c-10.48,13.48-22.56,25.63-36.06,36.08c1.72-1.33,3.44-2.66,5.16-3.99
			c-6.46,4.96-13.11,9.69-19.35,14.93c-6.19,5.2-11.55,11.33-15.95,18.12c-8.08,12.46-10.59,27.68-16.26,41.22
			c0.86-2.03,1.71-4.06,2.57-6.09c-4.85,11.4-11.14,22.09-18.71,31.9c1.33-1.72,2.66-3.44,3.99-5.16
			c-7.46,9.57-16.06,18.17-25.65,25.61c1.72-1.33,3.44-2.66,5.16-3.99c-6.12,4.7-12.75,9.5-19.86,12.61
			c2.03-0.86,4.06-1.71,6.09-2.57c-1.3,0.51-2.58,0.91-3.95,1.16c2.26-0.3,4.52-0.61,6.78-0.91c-1.03,0.12-2.01,0.16-3.04,0.08
			c2.26,0.3,4.52,0.61,6.78,0.91c-0.95-0.13-1.83-0.36-2.73-0.7c2.03,0.86,4.06,1.71,6.09,2.57c-0.86-0.38-1.64-0.83-2.4-1.37
			c1.72,1.33,3.44,2.66,5.16,3.99c-0.9-0.71-1.68-1.48-2.41-2.37c1.33,1.72,2.66,3.44,3.99,5.16c-0.83-1.1-1.51-2.25-2.08-3.51
			c0.86,2.03,1.71,4.06,2.57,6.09c-0.62-1.49-1.05-3.01-1.31-4.6c0.3,2.26,0.61,4.52,0.91,6.78c-0.21-1.6-0.23-3.18-0.05-4.78
			c-0.3,2.26-0.61,4.52-0.91,6.78c0.28-1.85,0.84-3.61,1.56-5.33c-0.86,2.03-1.71,4.06-2.57,6.09c1.05-2.32,2.38-4.44,3.91-6.47
			c-1.33,1.72-2.66,3.44-3.99,5.16c2.89-3.67,6.28-6.85,9.72-9.99c4.7-4.28,7.47-11.8,7.47-18.03c0-6.25-2.78-13.73-7.47-18.03
			c-4.86-4.46-11.24-7.77-18.03-7.47C702.08,666.32,696.18,668.76,691,673.48L691,673.48z"/>
	</g>
</g>
<g class="st3">
	<g>
		<path class="st4" d="M649.6,280.98c15.77,32.46,31.86,64.92,51.59,95.21c10.69,16.41,22.46,32.26,35.46,46.93
			c12.92,14.58,27.37,27.41,43.04,38.97c8.09,5.96,16.6,11.28,25.44,16.08c9.86,5.35,19.96,10.35,28.92,17.17
			c-1.72-1.33-3.44-2.66-5.16-3.99c4.91,3.81,9.28,8.15,13.12,13.03c-1.33-1.72-2.66-3.44-3.99-5.16
			c7.05,9.13,12.12,19.52,16.6,30.09c-0.86-2.03-1.71-4.06-2.57-6.09c5.19,12.31,10.87,25,12.69,38.33
			c-0.3-2.26-0.61-4.52-0.91-6.78c0.48,3.96,0.57,7.9,0.08,11.87c0.3-2.26,0.61-4.52,0.91-6.78c-0.47,3.25-1.32,6.38-2.59,9.41
			c0.86-2.03,1.71-4.06,2.57-6.09c-1.31,2.96-2.97,5.69-4.93,8.27c1.33-1.72,2.66-3.44,3.99-5.16c-3.24,4.14-7.1,7.68-11.25,10.9
			c1.72-1.33,3.44-2.66,5.16-3.99c-8.94,6.83-18.87,12.27-28.27,18.42c-10.06,6.59-19.84,13.59-29.37,20.93
			c-20.8,16.05-40.51,33.27-58.55,52.4c-9.48,10.05-18.49,20.53-27.04,31.39c-2.49,2.31-4.24,5.05-5.27,8.21
			c-1.6,3.04-2.33,6.31-2.2,9.82c0,6.25,2.78,13.73,7.47,18.03c4.86,4.46,11.24,7.77,18.03,7.47c6.28-0.28,13.95-2.28,18.03-7.47
			c18.19-23.13,38.58-44.51,60.83-63.77c6.38-5.52,12.92-10.87,19.6-16.04c-1.72,1.33-3.44,2.66-5.16,3.99
			c15.1-11.67,31.01-21.89,47.1-32.11c8.59-5.45,17.32-11.43,24.23-18.94c3.97-4.31,7.79-9.08,10.51-14.29
			c1.81-3.49,3.35-7.15,4.63-10.87c1.53-4.42,2.01-9.13,2.56-13.75c0.84-7.05-0.16-14.07-1.35-21.04
			c-0.87-5.13-2.36-10.14-4.08-15.04c-3.81-10.86-8.33-21.59-13.03-32.08c-3.74-8.35-8-16.53-13.51-23.86
			c-3.94-5.25-7.92-10.46-12.75-14.93c-4.93-4.56-10.38-8.66-15.98-12.36c-8.97-5.92-18.71-10.51-28.03-15.8
			c-8.56-4.86-16.74-10.35-24.55-16.35c1.72,1.33,3.44,2.66,5.16,3.99c-17.99-13.92-33.69-30.51-47.59-48.48
			c1.33,1.72,2.66,3.44,3.99,5.16c-22.16-28.78-39.75-60.75-56.02-93.13c-4.59-9.12-9.07-18.3-13.53-27.48
			c-2.67-5.49-9.53-10.15-15.24-11.72c-6.1-1.68-14.23-0.92-19.65,2.57c-5.44,3.51-10.24,8.74-11.72,15.24
			c-0.3,2.26-0.61,4.52-0.91,6.78C646.13,272.72,647.29,277.01,649.6,280.98L649.6,280.98z"/>
	</g>
</g>
<g class="st3">
	<g>
		<path class="st4" d="M643.56,315.54c24.88,21.04,50.04,41.77,75.45,62.16c7.15,5.74,14.33,11.45,21.52,17.14
			c2.31,2.49,5.05,4.24,8.21,5.27c3.04,1.6,6.31,2.33,9.82,2.2c3.51,0.13,6.79-0.6,9.82-2.2c3.16-1.03,5.9-2.79,8.21-5.27
			c1.33-1.72,2.66-3.44,3.99-5.16c2.31-3.98,3.47-8.27,3.48-12.87c-0.3-2.26-0.61-4.52-0.91-6.78c-1.21-4.32-3.4-8.07-6.56-11.25
			c-25.57-20.21-50.87-40.75-75.91-61.61c-7.04-5.87-14.07-11.77-21.07-17.69c-2.31-2.49-5.05-4.24-8.21-5.27
			c-3.04-1.6-6.31-2.33-9.82-2.2c-3.51-0.13-6.79,0.6-9.82,2.2c-3.16,1.03-5.9,2.79-8.21,5.27c-1.33,1.72-2.66,3.44-3.99,5.16
			c-2.31,3.98-3.47,8.27-3.48,12.87c0.3,2.26,0.61,4.52,0.91,6.78C638.21,308.61,640.4,312.36,643.56,315.54L643.56,315.54z"/>
	</g>
</g>
<g class="st3">
	<g>
		<path class="st4" d="M693.14,347.51c4.83,8.38,10.93,16.13,17.39,23.3c5.17,5.74,10.79,11.05,16.52,16.23
			c12.53,11.34,25.39,22.32,38.5,32.99c9.04,7.36,18.23,14.53,27.47,21.64c2.93,1.86,6.09,2.87,9.48,3.03
			c3.39,0.76,6.78,0.61,10.17-0.46c3.32-0.79,6.21-2.31,8.67-4.56c2.78-1.8,4.97-4.18,6.57-7.15c0.86-2.03,1.71-4.06,2.57-6.09
			c1.21-4.52,1.21-9.04,0-13.56c-0.86-2.03-1.71-4.06-2.57-6.09c-2.27-3.83-5.32-6.88-9.15-9.15c-0.64-0.49-1.27-0.98-1.91-1.47
			c1.72,1.33,3.44,2.66,5.16,3.99c-11.7-9.04-23.21-18.34-34.5-27.88c-10.79-9.12-21.57-18.34-31.76-28.14
			c-5.45-5.24-10.66-10.73-15.29-16.71c1.33,1.72,2.66,3.44,3.99,5.16c-2.65-3.45-5.09-7.04-7.26-10.81
			c-1.6-2.97-3.79-5.36-6.57-7.15c-2.46-2.25-5.35-3.78-8.67-4.56c-3.39-1.06-6.78-1.21-10.17-0.46c-3.39,0.15-6.55,1.16-9.48,3.03
			c-1.72,1.33-3.44,2.66-5.16,3.99c-3.16,3.18-5.35,6.93-6.56,11.25c-0.3,2.26-0.61,4.52-0.91,6.78
			C689.67,339.25,690.83,343.54,693.14,347.51L693.14,347.51z"/>
	</g>
</g>
<g class="st3">
	<g>
		<path class="st4" d="M714.13,347.3c19.07,15.98,39.3,30.66,60.72,43.35c5.56,3.29,11.19,6.45,16.9,9.48
			c2.93,1.86,6.09,2.87,9.48,3.03c3.39,0.76,6.78,0.61,10.17-0.46c3.32-0.79,6.21-2.31,8.67-4.56c2.78-1.8,4.97-4.18,6.57-7.15
			c0.86-2.03,1.71-4.06,2.57-6.09c1.21-4.52,1.21-9.04,0-13.56c-0.86-2.03-1.71-4.06-2.57-6.09c-2.27-3.83-5.32-6.88-9.15-9.15
			c-16.24-8.63-31.91-18.33-46.87-29.02c-4.2-3-8.35-6.09-12.44-9.24c1.72,1.33,3.44,2.66,5.16,3.99
			c-4.45-3.44-8.83-6.97-13.14-10.58c-2.31-2.49-5.05-4.24-8.21-5.27c-3.04-1.6-6.31-2.33-9.82-2.2c-3.51-0.13-6.79,0.6-9.82,2.2
			c-3.16,1.03-5.9,2.79-8.21,5.27c-1.33,1.72-2.66,3.44-3.99,5.16c-2.31,3.98-3.47,8.27-3.48,12.87c0.3,2.26,0.61,4.52,0.91,6.78
			C708.78,340.37,710.97,344.12,714.13,347.3L714.13,347.3z"/>
	</g>
</g>
<g class="st3">
	<g>
		<path class="st4" d="M765.01,383.2c15.58,12.47,31.16,24.94,46.74,37.41c4.41,3.53,8.83,7.07,13.24,10.6
			c2.31,2.49,5.05,4.24,8.21,5.27c3.04,1.6,6.31,2.33,9.82,2.2c3.51,0.13,6.79-0.6,9.82-2.2c3.16-1.03,5.9-2.79,8.21-5.27
			c1.33-1.72,2.66-3.44,3.99-5.16c2.31-3.98,3.47-8.27,3.48-12.87c-0.3-2.26-0.61-4.52-0.91-6.78c-1.21-4.32-3.4-8.07-6.56-11.25
			c-15.58-12.47-31.16-24.94-46.74-37.41c-4.41-3.53-8.83-7.07-13.24-10.6c-2.31-2.49-5.05-4.24-8.21-5.27
			c-3.04-1.6-6.31-2.33-9.82-2.2c-3.51-0.13-6.79,0.6-9.82,2.2c-3.16,1.03-5.9,2.79-8.21,5.27c-1.33,1.72-2.66,3.44-3.99,5.16
			c-2.31,3.98-3.47,8.27-3.48,12.87c0.3,2.26,0.61,4.52,0.91,6.78C759.66,376.27,761.85,380.02,765.01,383.2L765.01,383.2z"/>
	</g>
</g>
<g class="st3">
	<g>
		<path class="st4" d="M830.08,459.78c13.62,9.68,27.24,19.36,40.85,29.04c3.86,2.74,7.72,5.49,11.59,8.23
			c2.93,1.86,6.09,2.87,9.48,3.03c3.39,0.76,6.78,0.61,10.17-0.46c3.32-0.79,6.21-2.31,8.67-4.56c2.78-1.8,4.97-4.18,6.57-7.15
			c0.86-2.03,1.71-4.06,2.57-6.09c1.21-4.52,1.21-9.04,0-13.56c-0.86-2.03-1.71-4.06-2.57-6.09c-2.27-3.83-5.32-6.88-9.15-9.15
			c-13.62-9.68-27.24-19.36-40.85-29.04c-3.86-2.74-7.72-5.49-11.59-8.23c-2.93-1.86-6.09-2.87-9.48-3.03
			c-3.39-0.76-6.78-0.61-10.17,0.46c-3.32,0.79-6.21,2.31-8.67,4.56c-2.78,1.8-4.97,4.18-6.57,7.15c-0.86,2.03-1.71,4.06-2.57,6.09
			c-1.21,4.52-1.21,9.04,0,13.56c0.86,2.03,1.71,4.06,2.57,6.09C823.2,454.46,826.25,457.51,830.08,459.78L830.08,459.78z"/>
	</g>
</g>
<g class="st3">
	<g>
		<path class="st4" d="M871.33,488.83c2.96,5.27,5.92,10.54,8.88,15.81c1.46,2.6,2.92,5.2,4.38,7.8c1.45,2.58,3.08,5.13,4.32,7.82
			c-0.86-2.03-1.71-4.06-2.57-6.09c0.22,0.54,0.38,1.07,0.47,1.65c-0.3-2.26-0.61-4.52-0.91-6.78c0.02,0.37,0.01,0.68-0.03,1.04
			c0.3-2.26,0.61-4.52,0.91-6.78c-0.04,0.23-0.1,0.45-0.19,0.67c0.86-2.03,1.71-4.06,2.57-6.09c-0.09,0.21-0.19,0.41-0.33,0.6
			c1.33-1.72,2.66-3.44,3.99-5.16c-0.13,0.18-0.29,0.35-0.47,0.48c1.72-1.33,3.44-2.66,5.16-3.99c-0.1,0.06-0.19,0.12-0.29,0.19
			c-2.97,1.6-5.36,3.79-7.15,6.57c-2.25,2.46-3.78,5.35-4.56,8.67c-1.06,3.39-1.21,6.78-0.46,10.17c0.15,3.39,1.16,6.55,3.03,9.48
			c1.33,1.72,2.66,3.44,3.99,5.16c3.18,3.16,6.93,5.35,11.25,6.56c2.26,0.3,4.52,0.61,6.78,0.91c4.6-0.01,8.89-1.17,12.87-3.48
			c2.01-1.3,4.07-2.65,5.7-4.4c0.77-0.92,1.51-1.86,2.21-2.84c0.82-0.89,1.54-1.85,2.17-2.87c0.52-1.1,1-2.22,1.43-3.36
			c0.55-1.09,1.01-2.22,1.4-3.37c0.75-2.38,1-4.98,1.03-7.47c0.07-6-1.73-11.17-4.55-16.38c-1.84-3.4-3.79-6.75-5.68-10.12
			c-3.77-6.71-7.54-13.42-11.31-20.14c-1.6-2.97-3.79-5.36-6.57-7.15c-2.46-2.25-5.35-3.78-8.67-4.56
			c-3.39-1.06-6.78-1.21-10.17-0.46c-3.39,0.15-6.55,1.16-9.48,3.03c-1.72,1.33-3.44,2.66-5.16,3.99
			c-3.16,3.18-5.35,6.93-6.56,11.25c-0.3,2.26-0.61,4.52-0.91,6.78C867.86,480.57,869.02,484.86,871.33,488.83L871.33,488.83z"/>
	</g>
</g>
<g class="st3">
	<g>
		<path class="st4" d="M851.51,525.95c-8.46,1.82-16.98,3.65-25.04,6.9c-5.47,2.21-11,4.42-16,7.59c-3.31,2.1-6.4,4.6-9.46,7.03
			c-1.42,1.13-2.78,2.33-4.05,3.62c-2.83,2.87-5.25,6.18-7.63,9.4c-1.26,1.71-2.36,3.53-3.3,5.44c-1.86,2.93-2.87,6.09-3.03,9.48
			c-0.76,3.39-0.61,6.78,0.46,10.17c0.79,3.32,2.31,6.21,4.56,8.67c1.8,2.78,4.18,4.97,7.15,6.57c2.03,0.86,4.06,1.71,6.09,2.57
			c4.52,1.21,9.04,1.21,13.56,0c2.03-0.86,4.06-1.71,6.09-2.57c3.83-2.27,6.88-5.32,9.15-9.15c1.08-2.2,2.38-4.27,3.88-6.21
			c-1.33,1.72-2.66,3.44-3.99,5.16c2.17-2.75,4.67-5.18,7.42-7.33c-1.72,1.33-3.44,2.66-5.16,3.99c3.94-3.04,8.27-5.44,12.84-7.39
			c-2.03,0.86-4.06,1.71-6.09,2.57c8.37-3.5,17.26-5.44,26.1-7.34c3.32-0.79,6.21-2.31,8.67-4.56c2.78-1.8,4.97-4.18,6.57-7.15
			c1.86-2.93,2.87-6.09,3.03-9.48c0.76-3.39,0.61-6.78-0.46-10.17c-0.86-2.03-1.71-4.06-2.57-6.09c-2.27-3.83-5.32-6.88-9.15-9.15
			c-2.03-0.86-4.06-1.71-6.09-2.57C860.55,524.74,856.03,524.74,851.51,525.95L851.51,525.95z"/>
	</g>
</g>
<g class="st3">
	<g>
		<path class="st4" d="M792.89,567.88c-2.81,5.5-5.95,10.82-9.42,15.94c-1.86,2.93-2.87,6.09-3.03,9.48
			c-0.76,3.39-0.61,6.78,0.46,10.17c0.79,3.32,2.31,6.21,4.56,8.67c1.8,2.78,4.18,4.97,7.15,6.57c2.03,0.86,4.06,1.71,6.09,2.57
			c4.52,1.21,9.04,1.21,13.56,0c2.03-0.86,4.06-1.71,6.09-2.57c3.83-2.27,6.88-5.32,9.15-9.15c3.46-5.11,6.61-10.43,9.42-15.94
			c1.86-2.93,2.87-6.09,3.03-9.48c0.76-3.39,0.61-6.78-0.46-10.17c-0.79-3.32-2.31-6.21-4.56-8.67c-1.8-2.78-4.18-4.97-7.15-6.57
			c-2.03-0.86-4.06-1.71-6.09-2.57c-4.52-1.21-9.04-1.21-13.56,0c-2.03,0.86-4.06,1.71-6.09,2.57
			C798.21,561,795.16,564.05,792.89,567.88L792.89,567.88z"/>
	</g>
</g>
<g class="st3">
	<g>
		<path class="st4" d="M795.54,573.28c-3.19,2.62-6.41,5.2-9.68,7.72c1.72-1.33,3.44-2.66,5.16-3.99
			c-12.89,9.95-26.37,19.12-40.38,27.41c-4.01,2.38-8.07,4.68-12.16,6.91c-2.97,1.6-5.36,3.79-7.15,6.57
			c-2.25,2.46-3.78,5.35-4.56,8.67c-1.06,3.39-1.21,6.78-0.46,10.17c0.15,3.39,1.16,6.55,3.03,9.48c1.33,1.72,2.66,3.44,3.99,5.16
			c3.18,3.16,6.93,5.35,11.25,6.56c2.26,0.3,4.52,0.61,6.78,0.91c4.6-0.01,8.89-1.17,12.87-3.48c17.24-9.42,33.78-20.1,49.44-31.96
			c6.06-4.59,12.07-9.25,17.93-14.08c2.49-2.31,4.24-5.05,5.27-8.21c1.6-3.04,2.33-6.31,2.2-9.82c0.13-3.51-0.6-6.79-2.2-9.82
			c-1.03-3.16-2.79-5.9-5.27-8.21c-1.72-1.33-3.44-2.66-5.16-3.99c-3.98-2.31-8.27-3.47-12.87-3.48c-2.26,0.3-4.52,0.61-6.78,0.91
			C802.47,567.94,798.72,570.12,795.54,573.28L795.54,573.28z"/>
	</g>
</g>
<g class="st3">
	<g>
		<path class="st4" d="M728.35,637.17c-2,1.19-3.94,2.46-5.82,3.83c-2.63,1.91-5.19,3.92-7.73,5.95c-0.92,0.73-1.82,1.49-2.71,2.27
			c-2.49,2.31-4.24,5.05-5.27,8.21c-1.6,3.04-2.33,6.31-2.2,9.82c-0.13,3.51,0.6,6.79,2.2,9.82c1.03,3.16,2.79,5.9,5.27,8.21
			c1.72,1.33,3.44,2.66,5.16,3.99c3.98,2.31,8.27,3.47,12.87,3.48c2.26-0.3,4.52-0.61,6.78-0.91c4.32-1.21,8.07-3.4,11.25-6.56
			c1.16-1.02,2.36-2.01,3.58-2.95c-1.72,1.33-3.44,2.66-5.16,3.99c2.4-1.85,4.91-3.55,7.52-5.1c2.97-1.6,5.36-3.79,7.15-6.57
			c2.25-2.46,3.78-5.35,4.56-8.67c1.06-3.39,1.21-6.78,0.46-10.17c-0.15-3.39-1.16-6.55-3.03-9.48c-1.33-1.72-2.66-3.44-3.99-5.16
			c-3.18-3.16-6.93-5.35-11.25-6.56c-2.26-0.3-4.52-0.61-6.78-0.91C736.62,633.7,732.33,634.86,728.35,637.17L728.35,637.17z"/>
	</g>
</g>
<g class="st3">
	<g>
		<path class="st4" d="M709.6,644.8c-3.63,2.39-7.09,5.09-10.4,7.89c-1.75,1.48-3.4,3.07-4.94,4.75c-2.9,3.17-5.51,6.63-8,10.12
			c-1.36,1.9-2.59,3.9-3.7,5.96c-1.86,2.93-2.87,6.09-3.03,9.48c-0.76,3.39-0.61,6.78,0.46,10.17c0.79,3.32,2.31,6.21,4.56,8.67
			c1.8,2.78,4.18,4.97,7.15,6.57c2.03,0.86,4.06,1.71,6.09,2.57c4.52,1.21,9.04,1.21,13.56,0c2.03-0.86,4.06-1.71,6.09-2.57
			c3.83-2.27,6.88-5.32,9.15-9.15c1.41-2.63,3.02-5.13,4.84-7.5c-1.33,1.72-2.66,3.44-3.99,5.16c2.81-3.62,6.05-6.87,9.67-9.68
			c-1.72,1.33-3.44,2.66-5.16,3.99c1.1-0.84,2.22-1.64,3.38-2.4c2.97-1.6,5.36-3.79,7.15-6.57c2.25-2.46,3.78-5.35,4.56-8.67
			c1.06-3.39,1.21-6.78,0.46-10.17c-0.15-3.39-1.16-6.55-3.03-9.48c-1.33-1.72-2.66-3.44-3.99-5.16c-3.18-3.16-6.93-5.35-11.25-6.56
			c-2.26-0.3-4.52-0.61-6.78-0.91C717.87,641.33,713.58,642.49,709.6,644.8L709.6,644.8z"/>
	</g>
</g>
<g class="st3">
	<g>
		<path class="st4" d="M675,673.58c-2.78,6.04-5.41,12.23-6.76,18.77c-0.23,1.09-0.42,2.19-0.58,3.29
			c-0.39,2.68-0.87,5.41-1.08,8.11c-0.02,0.26-0.01,0.5,0,0.76c0.3,2.26,0.61,4.52,0.91,6.78c0.02,0.1,0.03,0.2,0.05,0.29
			c0.35,1.15,0.81,2.26,1.37,3.33c0.38,1.09,0.83,2.15,1.35,3.18c1.07,2.02,2.58,3.85,4.19,5.46c1.61,1.61,3.41,3.12,5.41,4.19
			c0.97,0.6,2.01,1.05,3.14,1.34c1.08,0.46,2.16,0.92,3.24,1.37c0.07,0.02,0.14,0.03,0.21,0.05c2.26,0.3,4.52,0.61,6.78,0.91
			c1.35-0.04,1.67-0.18,3.79-0.47c1.25,0.07,2.44-0.11,3.57-0.52c2.03-0.86,4.06-1.71,6.09-2.57c2.03-1.07,3.96-2.5,5.45-4.25
			c2.49-2.31,4.24-5.05,5.27-8.21c1.6-3.04,2.33-6.31,2.2-9.82c0.13-3.51-0.6-6.79-2.2-9.82c-1.03-3.16-2.79-5.9-5.27-8.21
			c-1.72-1.33-3.44-2.66-5.16-3.99c-3.98-2.31-8.27-3.47-12.87-3.48c-2.26,0.3-4.52,0.61-6.78,0.91c-4.32,1.21-8.07,3.4-11.25,6.56
			c-0.04,0.05-0.09,0.1-0.13,0.15c1.72-1.33,3.44-2.66,5.16-3.99c-0.05,0.04-0.11,0.07-0.16,0.11c2.03-0.86,4.06-1.71,6.09-2.57
			c-0.06,0.02-0.12,0.04-0.18,0.06c2.26-0.3,4.52-0.61,6.78-0.91c-0.13,0.03-0.27,0.03-0.41,0.01c2.26,0.3,4.52,0.61,6.78,0.91
			c-0.14-0.02-0.28-0.07-0.4-0.13c2.03,0.86,4.06,1.71,6.09,2.57c-0.06-0.04-0.12-0.08-0.18-0.11c1.72,1.33,3.44,2.66,5.16,3.99
			c-0.12-0.08-0.21-0.19-0.29-0.31c1.33,1.72,2.66,3.44,3.99,5.16c-0.05-0.09-0.09-0.18-0.14-0.27c0.86,2.03,1.71,4.06,2.57,6.09
			c-0.07-0.19-0.12-0.38-0.14-0.58c0.3,2.26,0.61,4.52,0.91,6.78c-0.02-0.41,0-0.81,0.05-1.22c-0.3,2.26-0.61,4.52-0.91,6.78
			c0.69-5.13,2.05-10.14,4.04-14.92c-0.86,2.03-1.71,4.06-2.57,6.09c0.28-0.65,0.56-1.29,0.85-1.93c1.86-2.93,2.87-6.09,3.03-9.48
			c0.76-3.39,0.61-6.78-0.46-10.17c-0.79-3.32-2.31-6.21-4.56-8.67c-1.8-2.78-4.18-4.97-7.15-6.57c-2.03-0.86-4.06-1.71-6.09-2.57
			c-4.52-1.21-9.04-1.21-13.56,0c-2.03,0.86-4.06,1.71-6.09,2.57C680.32,666.7,677.27,669.75,675,673.58L675,673.58z"/>
	</g>
</g>
<g class="st3">
	<g>
		<path class="st4" d="M443.54,777.09c6.45-14.95,12.41-30.06,17.37-45.58c4.32-13.54,7.97-27.3,10.92-41.21
			c1.65-7.79,3.09-15.64,4.3-23.51c1.06-3.39,1.21-6.78,0.46-10.17c-0.15-3.39-1.16-6.55-3.03-9.48c-1.6-2.97-3.79-5.36-6.57-7.15
			c-2.46-2.25-5.35-3.78-8.67-4.56c-2.26-0.3-4.52-0.61-6.78-0.91c-4.6,0.01-8.89,1.17-12.87,3.48c-1.72,1.33-3.44,2.66-5.16,3.99
			c-3.16,3.18-5.35,6.93-6.56,11.25c-4.18,27.02-10.94,53.63-20.2,79.37c-2.59,7.2-5.38,14.34-8.35,21.39
			c0.86-2.03,1.71-4.06,2.57-6.09c-0.49,1.15-0.98,2.3-1.47,3.45c-1.86,2.93-2.87,6.09-3.03,9.48c-0.76,3.39-0.61,6.78,0.46,10.17
			c0.79,3.32,2.31,6.21,4.56,8.67c1.8,2.78,4.18,4.97,7.15,6.57c2.03,0.86,4.06,1.71,6.09,2.57c4.52,1.21,9.04,1.21,13.56,0
			c2.03-0.86,4.06-1.71,6.09-2.57C438.22,783.97,441.27,780.92,443.54,777.09L443.54,777.09z"/>
	</g>
</g>
<g class="st3">
	<g>
		<path class="st4" d="M484.5,651.88c-0.57-19.46-0.79-38.93-0.67-58.4c0.04-5.49,0.1-10.98,0.19-16.47c0.13-3.51-0.6-6.79-2.2-9.82
			c-1.03-3.16-2.79-5.9-5.27-8.21c-2.31-2.49-5.05-4.24-8.21-5.27c-3.04-1.6-6.31-2.33-9.82-2.2c-2.26,0.3-4.52,0.61-6.78,0.91
			c-4.32,1.21-8.07,3.4-11.25,6.56c-1.33,1.72-2.66,3.44-3.99,5.16c-2.31,3.98-3.47,8.27-3.48,12.87
			c-0.32,19.47-0.3,38.94,0.08,58.41c0.11,5.49,0.24,10.98,0.4,16.47c-0.13,3.51,0.6,6.79,2.2,9.82c1.03,3.16,2.79,5.9,5.27,8.21
			c2.31,2.49,5.05,4.24,8.21,5.27c3.04,1.6,6.31,2.33,9.82,2.2c2.26-0.3,4.52-0.61,6.78-0.91c4.32-1.21,8.07-3.4,11.25-6.56
			c1.33-1.72,2.66-3.44,3.99-5.16C483.32,660.77,484.48,656.48,484.5,651.88L484.5,651.88z"/>
	</g>
</g>
<g class="st3">
	<g>
		<path class="st4" d="M465.69,607.24c0.29-3.59,0.68-7.16,1.15-10.73c-0.3,2.26-0.61,4.52-0.91,6.78
			c2.07-15.36,5.85-30.45,11.28-44.97c1.06-3.39,1.21-6.78,0.46-10.17c-0.15-3.39-1.16-6.55-3.03-9.48
			c-1.6-2.97-3.79-5.36-6.57-7.15c-2.46-2.25-5.35-3.78-8.67-4.56c-2.26-0.3-4.52-0.61-6.78-0.91c-4.6,0.01-8.89,1.17-12.87,3.48
			c-1.72,1.33-3.44,2.66-5.16,3.99c-3.16,3.18-5.35,6.93-6.56,11.25c-7.5,20.06-11.6,41.16-13.34,62.48
			c-0.13,3.51,0.6,6.79,2.2,9.82c1.03,3.16,2.79,5.9,5.27,8.21c2.31,2.49,5.05,4.24,8.21,5.27c3.04,1.6,6.31,2.33,9.82,2.2
			c2.26-0.3,4.52-0.61,6.78-0.91c4.32-1.21,8.07-3.4,11.25-6.56c1.33-1.72,2.66-3.44,3.99-5.16
			C464.52,616.13,465.68,611.84,465.69,607.24L465.69,607.24z"/>
	</g>
</g>
<g class="st3">
	<g>
		<path class="st4" d="M485.61,549.36c3.75-18.19,7.42-36.4,11-54.62c1.02-5.21,2.04-10.42,3.05-15.63
			c1.06-3.39,1.21-6.78,0.46-10.17c-0.15-3.39-1.16-6.55-3.03-9.48c-1.6-2.97-3.79-5.36-6.57-7.15c-2.46-2.25-5.35-3.78-8.67-4.56
			c-2.26-0.3-4.52-0.61-6.78-0.91c-4.6,0.01-8.89,1.17-12.87,3.48c-1.72,1.33-3.44,2.66-5.16,3.99c-3.16,3.18-5.35,6.93-6.56,11.25
			c-3.53,18.24-7.14,36.45-10.85,54.65c-1.06,5.2-2.12,10.4-3.2,15.6c-1.06,3.39-1.21,6.78-0.46,10.17
			c0.15,3.39,1.16,6.55,3.03,9.48c1.6,2.97,3.79,5.36,6.57,7.15c2.46,2.25,5.35,3.78,8.67,4.56c2.26,0.3,4.52,0.61,6.78,0.91
			c4.6-0.01,8.89-1.17,12.87-3.48c1.72-1.33,3.44-2.66,5.16-3.99C482.22,557.43,484.4,553.68,485.61,549.36L485.61,549.36z"/>
	</g>
</g>
<g class="st3">
	<g>
		<path class="st4" d="M486.91,484.14c13.33-26.49,25.02-53.89,34.94-81.84c2.59-7.29,5.05-14.63,7.38-22.01
			c1.06-3.39,1.21-6.78,0.46-10.17c-0.15-3.39-1.16-6.55-3.03-9.48c-1.6-2.97-3.79-5.36-6.57-7.15c-2.46-2.25-5.35-3.78-8.67-4.56
			c-2.26-0.3-4.52-0.61-6.78-0.91c-4.6,0.01-8.89,1.17-12.87,3.48c-1.72,1.33-3.44,2.66-5.16,3.99c-3.16,3.18-5.35,6.93-6.56,11.25
			c-4.81,15.21-10.16,30.24-16.05,45.06c-1.69,4.25-3.43,8.49-5.21,12.71c0.86-2.03,1.71-4.06,2.57-6.09
			c-5.72,13.53-11.88,26.86-18.48,39.98c-1.86,2.93-2.87,6.09-3.03,9.48c-0.76,3.39-0.61,6.78,0.46,10.17
			c0.79,3.32,2.31,6.21,4.56,8.67c1.8,2.78,4.18,4.97,7.15,6.57c2.03,0.86,4.06,1.71,6.09,2.57c4.52,1.21,9.04,1.21,13.56,0
			c2.03-0.86,4.06-1.71,6.09-2.57C481.59,491.02,484.64,487.97,486.91,484.14L486.91,484.14z"/>
	</g>
</g>
<g class="st3">
	<g>
		<path class="st4" d="M538.65,267.4c0.44-16.48,0.6-32.96,0.49-49.44c0.13-3.51-0.6-6.79-2.2-9.82c-1.03-3.16-2.79-5.9-5.27-8.21
			c-2.31-2.49-5.05-4.24-8.21-5.27c-3.04-1.6-6.31-2.33-9.82-2.2c-2.26,0.3-4.52,0.61-6.78,0.91c-4.32,1.21-8.07,3.4-11.25,6.56
			c-4.56,4.97-7.52,11.14-7.47,18.03c0.12,16.48-0.04,32.96-0.49,49.44c-0.13,3.51,0.6,6.79,2.2,9.82c1.03,3.16,2.79,5.9,5.27,8.21
			c2.31,2.49,5.05,4.24,8.21,5.27c3.04,1.6,6.31,2.33,9.82,2.2c2.26-0.3,4.52-0.61,6.78-0.91c4.32-1.21,8.07-3.4,11.25-6.56
			c1.33-1.72,2.66-3.44,3.99-5.16C537.47,276.29,538.63,272,538.65,267.4L538.65,267.4z"/>
	</g>
</g>
<g class="st3">
	<g>
		<path class="st4" d="M544.22,225.74c2.7-5.57,5.19-11.41,6.78-17.41c0.53-1.98,0.96-3.99,1.28-6.02
			c0.68-4.19,1.29-8.44,1.58-12.68c0.13-3.51-0.6-6.79-2.2-9.82c-1.03-3.16-2.79-5.9-5.27-8.21c-2.31-2.49-5.05-4.24-8.21-5.27
			c-3.04-1.6-6.31-2.33-9.82-2.2c-2.26,0.3-4.52,0.61-6.78,0.91c-4.32,1.21-8.07,3.4-11.25,6.56c-1.33,1.72-2.66,3.44-3.99,5.16
			c-2.31,3.98-3.47,8.27-3.48,12.87c-0.1,1.41-0.24,2.82-0.42,4.22c0.3-2.26,0.61-4.52,0.91-6.78c-0.75,5.48-2.21,10.82-4.34,15.93
			c0.86-2.03,1.71-4.06,2.57-6.09c-0.44,1.04-0.91,2.07-1.4,3.09c-1.86,2.93-2.87,6.09-3.03,9.48c-0.76,3.39-0.61,6.78,0.46,10.17
			c0.79,3.32,2.31,6.21,4.56,8.67c1.8,2.78,4.18,4.97,7.15,6.57c2.03,0.86,4.06,1.71,6.09,2.57c4.52,1.21,9.04,1.21,13.56,0
			c2.03-0.86,4.06-1.71,6.09-2.57C538.9,232.63,541.95,229.58,544.22,225.74L544.22,225.74z"/>
	</g>
</g>
<g class="st3">
	<g>
		<path class="st4" d="M553.46,179.49c1.26-2.25,2.52-4.5,3.79-6.75c1.86-2.93,2.87-6.09,3.03-9.48c0.76-3.39,0.61-6.78-0.46-10.17
			c-0.79-3.32-2.31-6.21-4.56-8.67c-1.8-2.78-4.18-4.97-7.15-6.57c-2.03-0.86-4.06-1.71-6.09-2.57c-4.52-1.21-9.04-1.21-13.56,0
			c-2.03,0.86-4.06,1.71-6.09,2.57c-3.83,2.27-6.88,5.32-9.15,9.15c-1.26,2.25-2.52,4.5-3.79,6.75c-1.86,2.93-2.87,6.09-3.03,9.48
			c-0.76,3.39-0.61,6.78,0.46,10.17c0.79,3.32,2.31,6.21,4.56,8.67c1.8,2.78,4.18,4.97,7.15,6.57c2.03,0.86,4.06,1.71,6.09,2.57
			c4.52,1.21,9.04,1.21,13.56,0c2.03-0.86,4.06-1.71,6.09-2.57C548.14,186.37,551.19,183.32,553.46,179.49L553.46,179.49z"/>
	</g>
</g>
<g class="st3">
	<g>
		<path class="st4" d="M549.64,141.22c3.51,0.13,6.79-0.6,9.82-2.2c3.16-1.03,5.9-2.79,8.21-5.27c2.49-2.31,4.24-5.05,5.27-8.21
			c1.6-3.04,2.33-6.31,2.2-9.82c-0.3-2.26-0.61-4.52-0.91-6.78c-1.21-4.32-3.4-8.07-6.56-11.25c-4.99-4.58-11.12-7.47-18.03-7.47
			c-3.51-0.13-6.79,0.6-9.82,2.2c-3.16,1.03-5.9,2.79-8.21,5.27c-2.49,2.31-4.24,5.05-5.27,8.21c-1.6,3.04-2.33,6.31-2.2,9.82
			c0.3,2.26,0.61,4.52,0.91,6.78c1.21,4.32,3.4,8.07,6.56,11.25C536.6,138.33,542.73,141.22,549.64,141.22L549.64,141.22z"/>
	</g>
</g>
<g class="st3">
	<g>
		<path class="st4" d="M277.53,318.26c-0.01,0.91-0.08,1.8-0.2,2.7c0.3-2.26,0.61-4.52,0.91-6.78c-0.29,1.92-0.81,3.76-1.54,5.56
			c0.86-2.03,1.71-4.06,2.57-6.09c-0.97,2.29-2.24,4.4-3.76,6.37c1.33-1.72,2.66-3.44,3.99-5.16c-1.73,2.19-3.71,4.12-5.91,5.83
			c1.72-1.33,3.44-2.66,5.16-3.99c-3.57,2.72-7.52,4.8-11.64,6.56c2.03-0.86,4.06-1.71,6.09-2.57c-2.81,1.18-5.67,2.21-8.55,3.19
			c-3.32,0.79-6.21,2.31-8.67,4.56c-2.78,1.8-4.97,4.18-6.57,7.15c-1.86,2.93-2.87,6.09-3.03,9.48c-0.76,3.39-0.61,6.78,0.46,10.17
			c0.86,2.03,1.71,4.06,2.57,6.09c2.27,3.83,5.32,6.88,9.15,9.15c2.03,0.86,4.06,1.71,6.09,2.57c4.52,1.21,9.04,1.21,13.56,0
			c6.05-2.06,12.04-4.41,17.8-7.19c5.61-2.71,10.69-6.44,15.36-10.54c1.43-1.25,2.74-2.63,3.94-4.11c2.44-3,5.15-6.23,7-9.73
			c3.88-7.35,6.08-14.88,6.21-23.24c0.13-3.51-0.6-6.79-2.2-9.82c-1.03-3.16-2.79-5.9-5.27-8.21c-2.31-2.49-5.05-4.24-8.21-5.27
			c-3.04-1.6-6.31-2.33-9.82-2.2c-2.26,0.3-4.52,0.61-6.78,0.91c-4.32,1.21-8.07,3.4-11.25,6.56c-1.33,1.72-2.66,3.44-3.99,5.16
			C278.71,309.36,277.55,313.66,277.53,318.26L277.53,318.26z"/>
	</g>
</g>
<g class="st3">
	<g>
		<path class="st4" d="M262.22,335.53c-1.51,2.51-3.16,4.93-4.95,7.26c1.33-1.72,2.66-3.44,3.99-5.16
			c-4.14,5.35-8.95,10.12-14.3,14.26c1.72-1.33,3.44-2.66,5.16-3.99c-5.47,4.19-11.44,7.67-17.79,10.35
			c2.03-0.86,4.06-1.71,6.09-2.57c-5.18,2.16-10.56,3.76-16.09,4.76c-3.32,0.79-6.21,2.31-8.67,4.56c-2.78,1.8-4.97,4.18-6.57,7.15
			c-1.86,2.93-2.87,6.09-3.03,9.48c-0.76,3.39-0.61,6.78,0.46,10.17c0.86,2.03,1.71,4.06,2.57,6.09c2.27,3.83,5.32,6.88,9.15,9.15
			c2.03,0.86,4.06,1.71,6.09,2.57c4.52,1.21,9.04,1.21,13.56,0c4.33-0.78,8.58-1.92,12.71-3.43c6.04-2.21,12.08-4.76,17.7-7.92
			c5.63-3.17,10.72-7.11,15.77-11.14c3.44-2.74,6.65-5.76,9.58-9.03c4.66-5.2,8.99-10.84,12.6-16.82c1.86-2.93,2.87-6.09,3.03-9.48
			c0.76-3.39,0.61-6.78-0.46-10.17c-0.79-3.32-2.31-6.21-4.56-8.67c-1.8-2.78-4.18-4.97-7.15-6.57c-2.03-0.86-4.06-1.71-6.09-2.57
			c-4.52-1.21-9.04-1.21-13.56,0c-2.03,0.86-4.06,1.71-6.09,2.57C267.53,328.65,264.49,331.7,262.22,335.53L262.22,335.53z"/>
	</g>
</g>
<g class="st3">
	<g>
		<path class="st4" d="M204.3,377.8c-6.61,6.56-13.26,13.12-20.63,18.84c1.72-1.33,3.44-2.66,5.16-3.99
			c-5.51,4.24-11.41,7.94-17.81,10.67c2.03-0.86,4.06-1.71,6.09-2.57c-4.69,1.96-9.58,3.39-14.63,4.08c2.26-0.3,4.52-0.61,6.78-0.91
			c-3.87,0.49-7.77,0.53-11.64,0.04c-3.51-0.13-6.79,0.6-9.82,2.2c-3.16,1.03-5.9,2.79-8.21,5.27c-2.49,2.31-4.24,5.05-5.27,8.21
			c-1.6,3.04-2.33,6.31-2.2,9.82c0.3,2.26,0.61,4.52,0.91,6.78c1.21,4.32,3.4,8.07,6.56,11.25c1.72,1.33,3.44,2.66,5.16,3.99
			c3.98,2.31,8.27,3.47,12.87,3.48c6.99,0.89,14.11-0.08,20.98-1.35c6.9-1.28,13.4-4.06,19.76-6.94c4.57-2.07,8.88-4.66,12.96-7.56
			c5.73-4.08,11.28-8.49,16.51-13.2c4.3-3.88,8.42-7.96,12.53-12.04c2.49-2.31,4.24-5.05,5.27-8.21c1.6-3.04,2.33-6.31,2.2-9.82
			c0.13-3.51-0.6-6.79-2.2-9.82c-1.03-3.16-2.79-5.9-5.27-8.21c-1.72-1.33-3.44-2.66-5.16-3.99c-3.98-2.31-8.27-3.47-12.87-3.48
			c-2.26,0.3-4.52,0.61-6.78,0.91C211.23,372.45,207.48,374.64,204.3,377.8L204.3,377.8z"/>
	</g>
</g>
<g class="st3">
	<g>
		<path class="st4" d="M113.37,424.92c-5.41,10.38-11.72,20.27-18.86,29.54c1.33-1.72,2.66-3.44,3.99-5.16
			c-2.48,3.2-5.05,6.33-7.72,9.38c-2.49,2.31-4.24,5.05-5.27,8.21c-1.6,3.04-2.33,6.31-2.2,9.82c-0.13,3.51,0.6,6.79,2.2,9.82
			c1.03,3.16,2.79,5.9,5.27,8.21c1.72,1.33,3.44,2.66,5.16,3.99c3.98,2.31,8.27,3.47,12.87,3.48c2.26-0.3,4.52-0.61,6.78-0.91
			c4.32-1.21,8.07-3.4,11.25-6.56c11.78-13.47,22.3-28.19,30.57-44.08c1.86-2.93,2.87-6.09,3.03-9.48
			c0.76-3.39,0.61-6.78-0.46-10.17c-0.79-3.32-2.31-6.21-4.56-8.67c-1.8-2.78-4.18-4.97-7.15-6.57c-2.03-0.86-4.06-1.71-6.09-2.57
			c-4.52-1.21-9.04-1.21-13.56,0c-2.03,0.86-4.06,1.71-6.09,2.57C118.68,418.04,115.63,421.09,113.37,424.92L113.37,424.92z"/>
	</g>
</g>
<g class="st3">
	<g>
		<path class="st4" d="M79.95,473.78c-1.89,2.33-3.85,4.67-5.47,7.21c-0.48,0.76-0.91,1.54-1.3,2.35c-1.1,2.32-2.05,4.73-3.02,7.1
			c-0.17,0.41-0.33,0.83-0.47,1.26c-0.3,0.87-0.54,1.76-0.72,2.67c-1.06,3.39-1.21,6.78-0.46,10.17c0.15,3.39,1.16,6.55,3.03,9.48
			c1.6,2.97,3.79,5.36,6.57,7.15c2.46,2.25,5.35,3.78,8.67,4.56c2.26,0.3,4.52,0.61,6.78,0.91c4.6-0.01,8.89-1.17,12.87-3.48
			c1.72-1.33,3.44-2.66,5.16-3.99c3.16-3.18,5.35-6.93,6.56-11.25c0.29-1.4,0.71-2.75,1.25-4.07c-0.86,2.03-1.71,4.06-2.57,6.09
			c0.72-1.7,1.65-3.3,2.77-4.77c-1.33,1.72-2.66,3.44-3.99,5.16c0.13-0.17,0.26-0.33,0.39-0.5c2.49-2.31,4.24-5.05,5.27-8.21
			c1.6-3.04,2.33-6.31,2.2-9.82c0.13-3.51-0.6-6.79-2.2-9.82c-1.03-3.16-2.79-5.9-5.27-8.21c-1.72-1.33-3.44-2.66-5.16-3.99
			c-3.98-2.31-8.27-3.47-12.87-3.48c-2.26,0.3-4.52,0.61-6.78,0.91C86.88,468.44,83.13,470.62,79.95,473.78L79.95,473.78z"/>
	</g>
</g>
<g class="st3">
	<g>
		<path class="st4" d="M105.79,587.55c5.79,3.6,11.39,7.49,16.79,11.66c-1.72-1.33-3.44-2.66-5.16-3.99
			c8.79,6.82,16.99,14.35,24.53,22.52c2.31,2.49,5.05,4.24,8.21,5.27c3.04,1.6,6.31,2.33,9.82,2.2c3.51,0.13,6.79-0.6,9.82-2.2
			c3.16-1.03,5.9-2.79,8.21-5.27c1.33-1.72,2.66-3.44,3.99-5.16c2.31-3.98,3.47-8.27,3.48-12.87c-0.3-2.26-0.61-4.52-0.91-6.78
			c-1.21-4.32-3.4-8.07-6.56-11.25c-6.13-6.65-12.69-12.88-19.67-18.64c-8.52-7.04-17.42-13.69-26.81-19.53
			c-2.93-1.86-6.09-2.87-9.48-3.03c-3.39-0.76-6.78-0.61-10.17,0.46c-3.32,0.79-6.21,2.31-8.67,4.56c-2.78,1.8-4.97,4.18-6.57,7.15
			c-0.86,2.03-1.71,4.06-2.57,6.09c-1.21,4.52-1.21,9.04,0,13.56c0.86,2.03,1.71,4.06,2.57,6.09
			C98.91,582.23,101.96,585.28,105.79,587.55L105.79,587.55z"/>
	</g>
</g>
<g class="st3">
	<g>
		<path class="st4" d="M142.33,622.55c22.76,11.44,44.86,24.15,66.18,38.09c6.01,3.93,11.96,7.97,17.85,12.09
			c2.93,1.86,6.09,2.87,9.48,3.03c3.39,0.76,6.78,0.61,10.17-0.46c3.32-0.79,6.21-2.31,8.67-4.56c2.78-1.8,4.97-4.18,6.57-7.15
			c0.86-2.03,1.71-4.06,2.57-6.09c1.21-4.52,1.21-9.04,0-13.56c-0.86-2.03-1.71-4.06-2.57-6.09c-2.27-3.83-5.32-6.88-9.15-9.15
			c-20.86-14.61-42.54-28.05-64.92-40.2c-6.32-3.43-12.69-6.76-19.11-9.98c-2.93-1.86-6.09-2.87-9.48-3.03
			c-3.39-0.76-6.78-0.61-10.17,0.46c-3.32,0.79-6.21,2.31-8.67,4.56c-2.78,1.8-4.97,4.18-6.57,7.15c-0.86,2.03-1.71,4.06-2.57,6.09
			c-1.21,4.52-1.21,9.04,0,13.56c0.86,2.03,1.71,4.06,2.57,6.09C135.44,617.23,138.49,620.28,142.33,622.55L142.33,622.55z"/>
	</g>
</g>
<g class="st3">
	<g>
		<path class="st4" d="M211.23,663.84c3.86,5.96,7.27,12.19,10.2,18.65c1.6,2.97,3.79,5.36,6.57,7.15c2.46,2.25,5.35,3.78,8.67,4.56
			c3.39,1.06,6.78,1.21,10.17,0.46c3.39-0.15,6.55-1.16,9.48-3.03c1.72-1.33,3.44-2.66,5.16-3.99c3.16-3.18,5.35-6.93,6.56-11.25
			c0.3-2.26,0.61-4.52,0.91-6.78c-0.01-4.6-1.17-8.89-3.48-12.87c-2.93-6.46-6.34-12.7-10.2-18.65c-1.6-2.97-3.79-5.36-6.57-7.15
			c-2.46-2.25-5.35-3.78-8.67-4.56c-3.39-1.06-6.78-1.21-10.17-0.46c-3.39,0.15-6.55,1.16-9.48,3.03c-1.72,1.33-3.44,2.66-5.16,3.99
			c-3.16,3.18-5.35,6.93-6.56,11.25c-0.3,2.26-0.61,4.52-0.91,6.78C207.76,655.57,208.92,659.86,211.23,663.84L211.23,663.84z"/>
	</g>
</g>
<g class="st3">
	<g>
		<path class="st4" d="M231.87,702.77c9.86,11.46,20.12,22.57,30.75,33.32c2.31,2.49,5.05,4.24,8.21,5.27
			c3.04,1.6,6.31,2.33,9.82,2.2c3.51,0.13,6.79-0.6,9.82-2.2c3.16-1.03,5.9-2.79,8.21-5.27c1.33-1.72,2.66-3.44,3.99-5.16
			c2.31-3.98,3.47-8.27,3.48-12.87c-0.3-2.26-0.61-4.52-0.91-6.78c-1.21-4.32-3.4-8.07-6.56-11.25
			c-10.63-10.75-20.89-21.86-30.75-33.32c-2.31-2.49-5.05-4.24-8.21-5.27c-3.04-1.6-6.31-2.33-9.82-2.2
			c-3.51-0.13-6.79,0.6-9.82,2.2c-3.16,1.03-5.9,2.79-8.21,5.27c-1.33,1.72-2.66,3.44-3.99,5.16c-2.31,3.98-3.47,8.27-3.48,12.87
			c0.3,2.26,0.61,4.52,0.91,6.78C226.52,695.84,228.71,699.59,231.87,702.77L231.87,702.77z"/>
	</g>
</g>
<g class="st3">
	<g>
		<path class="st4" d="M240.86,670.11c14.43,3.23,29.07,6.4,42.77,12.1c-2.03-0.86-4.06-1.71-6.09-2.57
			c2.31,0.98,4.53,2.1,6.54,3.61c-1.72-1.33-3.44-2.66-5.16-3.99c1.09,0.86,2.07,1.8,2.94,2.88c-1.33-1.72-2.66-3.44-3.99-5.16
			c1.18,1.54,2.09,3.21,2.85,4.99c-0.86-2.03-1.71-4.06-2.57-6.09c2.36,5.65,3.71,11.79,4.53,17.85c-0.3-2.26-0.61-4.52-0.91-6.78
			c0.18,1.42,0.33,2.84,0.45,4.27c-0.13,3.51,0.6,6.79,2.2,9.82c1.03,3.16,2.79,5.9,5.27,8.21c2.31,2.49,5.05,4.24,8.21,5.27
			c3.04,1.6,6.31,2.33,9.82,2.2c2.26-0.3,4.52-0.61,6.78-0.91c4.32-1.21,8.07-3.4,11.25-6.56c1.33-1.72,2.66-3.44,3.99-5.16
			c2.31-3.98,3.47-8.27,3.48-12.87c-0.64-7.93-1.77-15.99-4.05-23.63c-0.37-1.25-0.77-2.5-1.23-3.72c-1.19-3.22-2.48-6.46-4.06-9.51
			c-0.54-1.04-1.16-2.02-1.85-2.95c-1.87-2.51-3.89-5.57-6.41-7.69c-3.61-3.05-7.26-5.88-11.58-7.78
			c-4.36-1.92-8.77-3.75-13.26-5.34c-5.54-1.95-11.19-3.6-16.87-5.07c-6.46-1.68-12.98-3.14-19.5-4.59
			c-3.39-1.06-6.78-1.21-10.17-0.46c-3.39,0.15-6.55,1.16-9.48,3.03c-2.97,1.6-5.36,3.79-7.15,6.57c-2.25,2.46-3.78,5.35-4.56,8.67
			c-0.3,2.26-0.61,4.52-0.91,6.78c0.01,4.6,1.17,8.89,3.48,12.87c1.33,1.72,2.66,3.44,3.99,5.16
			C232.79,666.71,236.54,668.9,240.86,670.11L240.86,670.11z"/>
	</g>
</g>
<g class="st3">
	<g>
		<path class="st4" d="M310.54,717.12c0.56,1.03,1.06,2.08,1.51,3.16c-0.86-2.03-1.71-4.06-2.57-6.09c1.08,2.65,1.83,5.41,2.23,8.24
			c-0.3-2.26-0.61-4.52-0.91-6.78c0.23,1.74,0.39,3.52,0.19,5.27c0.3-2.26,0.61-4.52,0.91-6.78c-0.1,0.61-0.24,1.17-0.46,1.74
			c0.86-2.03,1.71-4.06,2.57-6.09c-0.21,0.45-0.45,0.86-0.74,1.25c1.33-1.72,2.66-3.44,3.99-5.16c-0.28,0.34-0.59,0.64-0.93,0.92
			c1.72-1.33,3.44-2.66,5.16-3.99c-0.5,0.37-1.03,0.67-1.6,0.91c2.03-0.86,4.06-1.71,6.09-2.57c-0.79,0.3-1.6,0.5-2.43,0.62
			c2.26-0.3,4.52-0.61,6.78-0.91c-1.96,0.25-3.93,0.13-5.89-0.12c2.26,0.3,4.52,0.61,6.78,0.91c-0.09-0.01-0.19-0.03-0.28-0.04
			c-3.39-1.06-6.78-1.21-10.17-0.46c-3.39,0.15-6.55,1.16-9.48,3.03c-2.97,1.6-5.36,3.79-7.15,6.57c-2.25,2.46-3.78,5.35-4.56,8.67
			c-0.3,2.26-0.61,4.52-0.91,6.78c0.01,4.6,1.17,8.89,3.48,12.87c1.33,1.72,2.66,3.44,3.99,5.16c3.18,3.16,6.93,5.35,11.25,6.56
			c3.32,0.45,6.98,1.17,10.45,1.21c0.64,0.01,1.28-0.01,1.92-0.07c2.44-0.24,4.94-0.59,7.36-0.98c0.38-0.06,0.75-0.12,1.12-0.21
			c3.15-0.75,6.36-2.01,9.01-3.89c1.82-1.3,3.93-2.79,5.56-4.33c0.19-0.18,0.36-0.38,0.54-0.58c4.12-4.72,5.14-6.62,7.3-12.5
			c1.27-3.45,1.62-7.39,1.44-11.08c-0.04-0.91-0.14-1.81-0.25-2.71c-0.36-2.9-0.67-5.83-1.23-8.7c-0.32-1.66-0.78-3.29-1.35-4.87
			c-1.01-2.8-2.23-5.54-3.44-8.26c-0.37-0.83-0.78-1.64-1.21-2.44c-1.6-2.97-3.79-5.36-6.57-7.15c-2.46-2.25-5.35-3.78-8.67-4.56
			c-3.39-1.06-6.78-1.21-10.17-0.46c-3.39,0.15-6.55,1.16-9.48,3.03c-1.72,1.33-3.44,2.66-5.16,3.99
			c-3.16,3.18-5.35,6.93-6.56,11.25c-0.3,2.26-0.61,4.52-0.91,6.78C307.07,708.85,308.23,713.14,310.54,717.12L310.54,717.12z"/>
	</g>
</g>
<g class="st3">
	<g>
		<path class="st4" d="M287.96,742.79c-0.03,0.08-0.05,0.16-0.06,0.24c-0.46,2.3-0.73,4.63-0.94,6.96c-0.01,0.16-0.01,0.31,0,0.47
			c0.23,2.33,0.5,4.67,0.94,6.96c0.01,0.07,0.03,0.15,0.05,0.22c0.66,2.25,1.68,4.4,2.73,6.5c0.07,0.14,0.16,0.27,0.25,0.4
			c1.33,1.72,2.66,3.44,3.99,5.16c0.02,0.02,0.03,0.04,0.05,0.06c0.02,0.03,0.05,0.06,0.07,0.09c0.05,0.06,0.1,0.11,0.16,0.16
			c4.32,3.95,6.48,5.07,11.99,7c3.39,1.06,6.78,1.21,10.17,0.46c3.39-0.15,6.55-1.16,9.48-3.03c2.97-1.6,5.36-3.79,7.15-6.57
			c2.25-2.46,3.78-5.35,4.56-8.67c0.3-2.26,0.61-4.52,0.91-6.78c-0.01-4.6-1.17-8.89-3.48-12.87c-1.33-1.72-2.66-3.44-3.99-5.16
			c-3.18-3.16-6.93-5.35-11.25-6.56c-0.05-0.02-0.09-0.03-0.14-0.05c2.03,0.86,4.06,1.71,6.09,2.57c-0.16-0.07-0.31-0.16-0.45-0.27
			c1.72,1.33,3.44,2.66,5.16,3.99c-0.16-0.12-0.3-0.27-0.42-0.43c1.33,1.72,2.66,3.44,3.99,5.16c-0.13-0.17-0.24-0.36-0.32-0.55
			c0.86,2.03,1.71,4.06,2.57,6.09c-0.08-0.2-0.14-0.4-0.17-0.62c0.3,2.26,0.61,4.52,0.91,6.78c-0.02-0.19-0.02-0.37,0-0.56
			c-0.3,2.26-0.61,4.52-0.91,6.78c0.02-0.12,0.05-0.25,0.08-0.37c1.06-3.39,1.21-6.78,0.46-10.17c-0.15-3.39-1.16-6.55-3.03-9.48
			c-1.6-2.97-3.79-5.36-6.57-7.15c-2.46-2.25-5.35-3.78-8.67-4.56c-2.26-0.3-4.52-0.61-6.78-0.91c-4.6,0.01-8.89,1.17-12.87,3.48
			c-1.72,1.33-3.44,2.66-5.16,3.99C291.36,734.72,289.18,738.47,287.96,742.79L287.96,742.79z"/>
	</g>
</g>
<g class="st3">
	<g>
		<path class="st4" d="M303.59,785.51c3.03,0.72,6.16,1.14,9.26,1.28c2.93,0.13,6.86-0.63,9.24-1.04c3.77-0.64,7.5-2.42,10.82-4.1
			c0.87-0.44,1.7-0.96,2.49-1.53c2.45-1.78,4.95-3.56,7.15-5.64c2.82-2.67,5.22-5.91,7.3-9.17c2.19-3.43,3.66-7.36,4.96-11.19
			c1.43-4.22,1.81-8.79,2.37-13.17c0.58-4.56,0.55-9.14,0.45-13.73c0.13-3.51-0.6-6.79-2.2-9.82c-1.03-3.16-2.79-5.9-5.27-8.21
			c-2.31-2.49-5.05-4.24-8.21-5.27c-3.04-1.6-6.31-2.33-9.82-2.2c-2.26,0.3-4.52,0.61-6.78,0.91c-4.32,1.21-8.07,3.4-11.25,6.56
			c-4.53,4.93-7.61,11.17-7.47,18.03c0.09,4.58,0.15,9.18-0.45,13.73c0.3-2.26,0.61-4.52,0.91-6.78c-0.41,2.9-1.11,5.73-2.24,8.43
			c0.86-2.03,1.71-4.06,2.57-6.09c-0.72,1.64-1.59,3.15-2.67,4.58c1.33-1.72,2.66-3.44,3.99-5.16c-1.08,1.37-2.28,2.6-3.65,3.7
			c1.72-1.33,3.44-2.66,5.16-3.99c-1.26,0.97-2.6,1.79-4.05,2.43c2.03-0.86,4.06-1.71,6.09-2.57c-1.21,0.51-2.45,0.87-3.75,1.08
			c2.26-0.3,4.52-0.61,6.78-0.91c-1.18,0.16-2.35,0.17-3.53,0.03c2.26,0.3,4.52,0.61,6.78,0.91c-0.48-0.07-0.95-0.16-1.42-0.27
			c-3.39-1.06-6.78-1.21-10.17-0.46c-3.39,0.15-6.55,1.16-9.48,3.03c-2.97,1.6-5.36,3.79-7.15,6.57c-2.25,2.46-3.78,5.35-4.56,8.67
			c-0.3,2.26-0.61,4.52-0.91,6.78c0.01,4.6,1.17,8.89,3.48,12.87c1.33,1.72,2.66,3.44,3.99,5.16
			C295.52,782.11,299.27,784.29,303.59,785.51L303.59,785.51z"/>
	</g>
</g>
<g class="st3">
	<g>
		<path class="st4" d="M297.4,710.26c3.51,0.13,6.79-0.6,9.82-2.2c3.16-1.03,5.9-2.79,8.21-5.27c2.49-2.31,4.24-5.05,5.27-8.21
			c1.6-3.04,2.33-6.31,2.2-9.82c-0.3-2.26-0.61-4.52-0.91-6.78c-1.21-4.32-3.4-8.07-6.56-11.25c-4.99-4.58-11.12-7.47-18.03-7.47
			c-3.51-0.13-6.79,0.6-9.82,2.2c-3.16,1.03-5.9,2.79-8.21,5.27c-2.49,2.31-4.24,5.05-5.27,8.21c-1.6,3.04-2.33,6.31-2.2,9.82
			c0.3,2.26,0.61,4.52,0.91,6.78c1.21,4.32,3.4,8.07,6.56,11.25C284.36,707.37,290.49,710.26,297.4,710.26L297.4,710.26z"/>
	</g>
</g>
<g>
	<g>
		<path d="M352.4,206c-18.49,22.75-42.1,40.39-67.03,55.5c-25.39,15.4-52.12,28.42-78,42.94c-13,7.3-25.81,14.97-38.05,23.49
			c-13.73,9.56-26.77,20.1-39.2,31.29c-25.1,22.57-47.75,47.67-69.91,73.08c-5.45,6.25-11.13,12.38-16.15,18.98
			c-5.14,6.76-8.35,14.14-9.97,22.46c-1.67,8.57-2.4,17.28-4.14,25.84c-0.9,4.45-1.96,8.87-3.16,13.24
			c-1.1,3.99-2.02,8.4-4.01,12.05c-1.3,2.38-4.08,6.34-7.24,4.67c-1.71-0.9-3.22,1.69-1.51,2.59c6.8,3.59,11.57-5.2,13.25-10.44
			c2.78-8.64,4.96-17.48,6.54-26.42c1.52-8.65,2.04-17.54,4.4-26.02c2.32-8.38,7.13-15.15,12.71-21.68
			c22.16-25.91,44.8-51.6,69.44-75.2c12.33-11.81,25.21-23.07,38.82-33.38c12.49-9.46,25.62-17.99,39.13-25.91
			c25.95-15.2,53.05-28.33,79.08-43.38c25.42-14.7,50.07-31.47,69.98-53.27c2.47-2.7,4.86-5.48,7.17-8.32
			C355.73,206.63,353.62,204.5,352.4,206L352.4,206z"/>
	</g>
</g>
<g>
	<g>
		<path d="M133.92,495.89c23.16-8.64,45.94-18.31,68.23-28.98c22.04-10.55,43.64-22.05,64.65-34.54
			c18.25-10.85,36.46-22.98,49.99-39.6c7.12-8.75,12.47-18.54,16.37-29.12c4.25-11.53,7.24-23.6,9.64-35.64
			c4.91-24.6,6.7-49.83,5.27-74.87c-0.18-3.1-0.41-6.21-0.68-9.3c-0.17-1.91-3.17-1.93-3,0c2.19,24.8,1.26,49.88-2.85,74.44
			c-2.03,12.1-4.77,24.11-8.35,35.85c-3.36,11-7.8,21.62-14.41,31.08c-12.14,17.36-29.74,30.03-47.57,41
			c-20.23,12.45-41.23,23.74-62.54,34.23c-21.95,10.8-44.38,20.62-67.2,29.41c-2.78,1.07-5.56,2.12-8.35,3.16
			C131.33,493.67,132.11,496.57,133.92,495.89L133.92,495.89z"/>
	</g>
</g>
<g>
	<g>
		<path d="M349.21,684.79c-15.83-12.68-31.67-25.37-47.5-38.05c-15.87-12.71-31.73-25.42-47.6-38.13
			c-13.25-10.62-26.47-21.28-39.22-32.5c-12.73-11.21-25-22.99-36.16-35.79c-11-12.62-20.88-26.26-28.83-41.02
			c-0.98-1.82-1.93-3.66-2.85-5.52c-0.86-1.73-3.45-0.21-2.59,1.51c7.5,15.06,17.01,29.02,27.74,41.96
			c10.82,13.04,22.85,25.03,35.42,36.38c12.71,11.48,25.99,22.33,39.34,33.06c15.45,12.41,30.93,24.78,46.39,37.17
			c15.96,12.79,31.93,25.58,47.89,38.36c1.95,1.56,3.89,3.12,5.84,4.68C348.58,688.11,350.72,686,349.21,684.79L349.21,684.79z"/>
	</g>
</g>
<g>
	<g>
		<path d="M284.18,768.11c8.76,7.44,18,14.81,29.04,18.52c9.47,3.18,20.59,3.16,29.44-1.85c9.13-5.17,13.39-14.96,14.7-24.97
			c0.69-5.22,0.66-10.5,0.36-15.75c-0.34-6.08-1.03-12.15-2.07-18.15c-2.32-13.3-6.55-26.29-13.06-38.14
			c-0.93-1.69-3.52-0.18-2.59,1.51c5.53,10.06,9.35,20.95,11.74,32.16c2.28,10.68,3.61,21.89,3.11,32.82
			c-0.43,9.45-2.85,19.61-10.55,25.82c-7.38,5.94-17.84,6.82-26.78,4.67c-12.01-2.89-22-10.93-31.22-18.76
			C284.84,764.75,282.71,766.86,284.18,768.11L284.18,768.11z"/>
	</g>
</g>
<g>
	<g>
		<path d="M18.21,538.47c18.98,15.68,37.93,31.4,56.84,47.16s37.8,31.55,56.66,47.38c18.79,15.77,37.54,31.59,56.27,47.43
			c9.36,7.92,18.72,15.86,28.06,23.8c8.78,7.46,17.67,14.91,25.16,23.72c13.08,15.39,22.03,33.97,36.31,48.39
			c1.71,1.73,3.49,3.38,5.35,4.95c1.46,1.24,3.6-0.87,2.12-2.12c-15.54-13.21-24.86-31.7-37.09-47.67
			c-6.76-8.82-14.64-16.45-23.04-23.7c-9.25-7.98-18.6-15.83-27.92-23.72c-18.72-15.86-37.47-31.68-56.24-47.46
			c-18.85-15.84-37.72-31.64-56.63-47.41s-37.85-31.49-56.82-47.18c-2.3-1.9-4.59-3.8-6.89-5.69
			C18.86,535.13,16.72,537.24,18.21,538.47L18.21,538.47z"/>
	</g>
</g>
<g>
	<g>
		<path d="M527.27,71.26c-8.22,26.81-16.14,53.71-23.76,80.7c-7.62,26.99-14.93,54.06-21.94,81.21
			c-3.93,15.24-7.77,30.51-11.51,45.8c-0.46,1.87,2.43,2.67,2.89,0.8c6.67-27.24,13.63-54.4,20.91-81.48
			c7.28-27.08,14.86-54.08,22.74-80.99c4.43-15.11,8.95-30.19,13.56-45.24C530.73,70.21,527.84,69.42,527.27,71.26L527.27,71.26z"/>
	</g>
</g>
<g>
	<g>
		<path d="M476.92,244.5c-5.33,21.39-10.24,42.89-14.73,64.47c-4.49,21.58-8.57,43.25-12.22,64.99c-2.06,12.24-3.98,24.5-5.77,36.78
			c-0.28,1.89,2.62,2.7,2.89,0.8c3.18-21.82,6.78-43.57,10.8-65.25c4.02-21.68,8.46-43.27,13.32-64.78
			c2.74-12.11,5.61-24.18,8.6-36.22C480.28,243.43,477.39,242.63,476.92,244.5L476.92,244.5z"/>
	</g>
</g>
<g>
	<g>
		<path d="M451.74,409.74c-14.16,39.02-27.01,78.53-38.02,118.55c-10.95,39.82-20.1,80.16-26.85,120.92
			c-6.73,40.57-11.1,81.55-12.51,122.66c-0.71,20.57-0.67,41.18,0.17,61.75c0.84,20.52,2.17,41.28,6.18,61.46
			c2.65,13.32,8.95,29.99,24.44,32c7.76,1.01,15.47-2.24,21.32-7.2c6.56-5.57,10.48-13.57,13.09-21.62
			c1.44-4.45,2.51-9.01,3.52-13.58c0.42-1.88-2.47-2.68-2.89-0.8c-3.59,16.18-9.77,37.01-28.89,40.13
			c-17.34,2.83-24.85-15.65-27.62-29.38c-4.01-19.85-5.28-40.32-6.12-60.52c-0.82-19.76-0.9-39.55-0.29-59.32
			c1.24-40.03,5.29-79.95,11.64-119.49c6.29-39.17,14.81-77.97,25.03-116.3c10.33-38.7,22.4-76.93,35.77-114.69
			c1.63-4.6,3.27-9.18,4.94-13.77C455.3,408.72,452.4,407.94,451.74,409.74L451.74,409.74z"/>
	</g>
</g>
<g>
	<g>
		<path d="M521.7,84.47c5.72-8.37,7.03-20.2,15.5-26.56c7.32-5.49,17.55-4.97,25.59-1.42c9.55,4.22,15.87,12.82,19.76,22.27
			c4.21,10.22,6.17,21.44,7.65,32.35c1.8,13.32,2.13,27.48-3.34,40.04c-0.76,1.75,1.82,3.28,2.59,1.51
			c5.12-11.76,5.6-24.7,4.26-37.3c-0.66-6.21-1.67-12.39-2.88-18.51c-1.12-5.65-2.51-11.26-4.52-16.67
			c-3.74-10.08-9.84-19.81-19.52-25.06c-8.44-4.58-19.22-6.09-28.04-1.68c-11.66,5.83-12.93,19.69-19.64,29.52
			C518.02,84.56,520.62,86.06,521.7,84.47L521.7,84.47z"/>
	</g>
</g>
<g>
	<g>
		<path d="M580.11,158.45c0.95,19.41,1.01,38.86,0.16,58.28c-0.85,19.36-2.58,38.69-5.23,57.89c-1.5,10.87-3.29,21.71-5.35,32.49
			c-0.36,1.89,2.53,2.69,2.89,0.8c3.67-19.14,6.45-38.45,8.34-57.84c1.89-19.42,2.87-38.94,2.95-58.45
			c0.04-11.06-0.21-22.12-0.76-33.16C583.02,156.53,580.02,156.52,580.11,158.45L580.11,158.45z"/>
	</g>
</g>
<g>
	<g>
		<path d="M570.45,244.9c-1.23,19.79-3.14,39.54-5.75,59.2c-2.61,19.68-5.94,39.27-9.94,58.72c-2.25,10.94-4.72,21.83-7.4,32.68
			c-0.46,1.87,2.43,2.67,2.89,0.8c4.79-19.41,8.91-38.98,12.32-58.68c3.39-19.59,6.1-39.3,8.12-59.08
			c1.14-11.19,2.05-22.41,2.75-33.64C573.57,242.97,570.57,242.98,570.45,244.9L570.45,244.9z"/>
	</g>
</g>
<g>
	<g>
		<path d="M554.55,302.27c-5.97,25.43-11.33,51.01-16.05,76.7c-4.71,25.66-8.79,51.44-12.25,77.31
			c-1.94,14.56-3.69,29.16-5.23,43.77c-0.05,0.46,0.31,1.11,0.74,1.3c3.3,1.42,7.24,0.29,9.01-2.94c0.93-1.69-1.66-3.21-2.59-1.51
			c-0.91,1.66-3.08,2.65-4.9,1.86c0.25,0.43,0.5,0.86,0.74,1.3c2.73-25.85,6.09-51.62,10.08-77.3c4-25.73,8.64-51.36,13.89-76.87
			c2.95-14.31,6.1-28.58,9.44-42.81C557.88,301.19,554.99,300.39,554.55,302.27L554.55,302.27z"/>
	</g>
</g>
<g>
	<g>
		<path d="M531.09,401.85c-2.61,16.5-5.39,32.96-8.36,49.4c-2.99,16.51-6.16,33-9.51,49.44c-3.34,16.36-6.86,32.69-10.56,48.98
			c-3.72,16.37-7.62,32.69-11.7,48.97c-4.06,16.2-8.31,32.35-12.73,48.46c-0.56,2.05-1.13,4.1-1.7,6.16
			c-0.52,1.86,2.38,2.66,2.89,0.8c4.47-16.09,8.76-32.23,12.87-48.42c4.13-16.27,8.08-32.58,11.84-48.93
			c3.75-16.27,7.31-32.59,10.7-48.95c3.4-16.43,6.62-32.91,9.65-49.41c3.02-16.43,5.85-32.89,8.5-49.37c0.34-2.1,0.67-4.2,1-6.31
			C534.28,400.75,531.39,399.94,531.09,401.85L531.09,401.85z"/>
	</g>
</g>
<g>
	<g>
		<path d="M520.02,564.16c-6.34,26.23-12.28,52.55-17.78,78.97c-5.49,26.33-10.56,52.76-15.22,79.25
			c-2.62,14.94-5.11,29.91-7.47,44.9c-0.3,1.89,2.59,2.7,2.89,0.8c4.19-26.66,8.8-53.24,13.84-79.75
			c5.02-26.43,10.46-52.78,16.32-79.03c3.3-14.81,6.74-29.59,10.31-44.33C523.36,563.08,520.47,562.28,520.02,564.16L520.02,564.16z
			"/>
	</g>
</g>
<g>
	<g>
		<path d="M482.31,640.2c-6.38,17.72-11.9,35.74-16.52,54c-4.62,18.26-8.33,36.74-11.13,55.36c-2.79,18.56-4.54,37.23-5.97,55.94
			c-1.44,18.87-2.63,37.76-4.55,56.59c-1.91,18.79-4.58,37.54-8.97,55.92c-0.54,2.28-1.12,4.56-1.71,6.83
			c-0.49,1.87,2.4,2.67,2.89,0.8c4.78-18.2,7.78-36.8,9.91-55.47c2.15-18.8,3.42-37.68,4.81-56.54c1.39-18.81,2.89-37.62,5.47-56.32
			c2.57-18.66,6.06-37.18,10.45-55.5c4.39-18.31,9.68-36.41,15.85-54.2c0.77-2.21,1.55-4.42,2.34-6.63
			C485.85,639.17,482.96,638.39,482.31,640.2L482.31,640.2z"/>
	</g>
</g>
<g>
	<g>
		<path d="M737.4,402.73c-23.5,2.78-45.76-9.02-61.41-25.87c-17.94-19.32-26.2-44.96-30.32-70.53c-2.48-15.4-3.54-30.98-4.57-46.52
			c-0.13-1.92-3.13-1.93-3,0c1.87,28.12,3.82,56.95,14.04,83.51c4.6,11.95,10.83,23.11,19.2,32.84c7.75,9,17.14,16.76,27.74,22.16
			c11.8,6.01,25.1,8.99,38.32,7.42C739.29,405.51,739.31,402.51,737.4,402.73L737.4,402.73z"/>
	</g>
</g>
<g>
	<g>
		<path d="M641.69,281.54c-3.64-19.77-3.36-40.2,0.79-59.87c0.4-1.88-2.49-2.69-2.89-0.8c-3.32,15.7-4.27,31.87-2.71,47.84
			c0.44,4.56,1.09,9.11,1.92,13.62C639.14,284.23,642.04,283.43,641.69,281.54L641.69,281.54z"/>
	</g>
</g>
<g>
	<g>
		<path d="M653.98,231.38c26.38,15.9,52.77,31.8,79.15,47.69c25.86,15.59,51.93,30.88,77.55,46.87
			c12.04,7.51,23.9,15.37,35.04,24.17c10.28,8.12,19.86,17.07,28.73,26.7c17.24,18.72,31.7,39.8,44.54,61.73
			c12.97,22.14,24.31,45.18,35.41,68.31c1.39,2.9,2.78,5.79,4.16,8.69c0.83,1.74,3.42,0.22,2.59-1.51
			c-11.13-23.29-22.33-46.57-35.01-69.06c-12.54-22.24-26.57-43.75-43.23-63.15c-8.31-9.67-17.27-18.78-26.92-27.11
			c-10.75-9.28-22.34-17.54-34.24-25.28c-12.21-7.94-24.74-15.37-37.21-22.88c-13.24-7.98-26.47-15.95-39.71-23.93
			c-26.47-15.95-52.94-31.9-79.41-47.85c-3.31-1.99-6.62-3.99-9.93-5.98C653.84,227.79,652.33,230.38,653.98,231.38L653.98,231.38z"
			/>
	</g>
</g>
<g>
	<g>
		<path d="M726.59,402.39c27.95,16.37,55.8,32.92,83.54,49.66c13.73,8.28,27.43,16.61,41.1,24.99c4.84,2.96,11.6,6.29,13.32,12.2
			c0.99,3.39-0.38,6.67-2.1,9.56c-1.75,2.93-3.75,5.73-5.72,8.51c-15.93,22.37-36.15,41.5-59.18,56.42
			c-20.86,13.51-43.44,24.03-65.12,36.12c-20.98,11.7-41.56,25.16-57.11,43.75c-1.92,2.29-3.75,4.65-5.5,7.07
			c-1.13,1.57,1.47,3.06,2.59,1.51c14.47-19.96,34.82-34.4,55.96-46.58c21.73-12.53,44.58-23.04,65.92-36.26
			c23.37-14.48,44.02-32.81,60.73-54.67c2.16-2.83,4.26-5.71,6.28-8.65c2-2.9,4.13-5.83,5.49-9.11c1.25-3.03,1.56-6.35,0.35-9.45
			c-1.04-2.66-2.93-4.89-5.09-6.74c-2.47-2.12-5.25-3.81-8.01-5.51c-3.52-2.16-7.05-4.31-10.58-6.47
			c-6.91-4.22-13.83-8.43-20.76-12.62c-27.99-16.96-56.09-33.73-84.3-50.31c-3.42-2.01-6.84-4.02-10.26-6.02
			C726.44,398.83,724.93,401.42,726.59,402.39L726.59,402.39z"/>
	</g>
</g>
<g>
	<g>
		<path d="M659.18,666.62c-11.93,15.98-11.63,39.67-0.22,55.84c6.98,9.9,17.85,15.8,28.67,20.64c11.65,5.22,24.41,9.12,37.32,8.21
			c12.36-0.87,24.54-6.09,32.16-16.11c1.17-1.54-1.44-3.03-2.59-1.51c-6.33,8.33-16.5,13-26.71,14.34
			c-12.03,1.58-24.16-1.51-35.23-6.05c-5.69-2.33-11.32-5.04-16.59-8.22c-4.74-2.86-9.16-6.27-12.7-10.55
			c-5.91-7.15-9.24-16.37-9.84-25.59c-0.69-10.47,2.02-21.04,8.33-29.5C662.93,666.58,660.33,665.08,659.18,666.62L659.18,666.62z"
			/>
	</g>
</g>
<g>
	<g>
		<path d="M792.9,724.21c13.81-10.35,27.62-20.71,41.18-31.39c13.56-10.69,26.87-21.72,39.6-33.38
			c12.12-11.1,23.73-22.79,34.47-35.24c10.25-11.88,19.75-24.45,28.11-37.74c8.36-13.3,15.57-27.34,21.23-42
			c0.71-1.84,1.4-3.7,2.06-5.56c0.65-1.82-2.25-2.61-2.89-0.8c-5.24,14.7-12.07,28.79-20.11,42.16c-8.02,13.36-17.21,26-27.21,37.94
			c-10.36,12.37-21.58,23.99-33.35,35.02c-12.42,11.65-25.44,22.66-38.75,33.29c-13.34,10.67-26.98,20.96-40.65,31.21
			c-1.74,1.3-3.47,2.6-5.21,3.9C789.86,722.76,791.35,725.36,792.9,724.21L792.9,724.21z"/>
	</g>
</g>
</svg>
